<?xml version="1.0" standalone="no"?>
<!DOCTYPE svg PUBLIC "-//W3C//DTD SVG 1.1//EN" "http://www.w3.org/Graphics/SVG/1.1/DTD/svg11.dtd" >
<svg xmlns="http://www.w3.org/2000/svg" xmlns:xlink="http://www.w3.org/1999/xlink" version="1.1">
<metadata>
Created by FontForge 20161116 at Wed Oct 15 09:46:45 2008
 By Jimmy Wärting
Copyright (c) Andrew Paglinawan, 2008. All rights reserved.
</metadata>
<defs>
<font id="QuicksandBold-Regular" horiz-adv-x="500" >
  <font-face 
    font-family="Quicksand Bold"
    font-weight="700"
    font-stretch="normal"
    units-per-em="1000"
    panose-1="0 0 0 0 0 0 0 0 0 0"
    ascent="800"
    descent="-200"
    x-height="483"
    cap-height="700"
    bbox="-24 -188 1097 950"
    underline-thickness="50"
    underline-position="-100"
    unicode-range="U+0020-2122"
  />
<missing-glyph 
 />
    <glyph glyph-name=".notdef" 
 />
    <glyph glyph-name=".notdef" 
 />
    <glyph glyph-name="B" unicode="B" horiz-adv-x="594" 
d="M159 0c-30 0 -55 25 -55 55v590c0 31 25 55 55 55h3h1h138c105 0 190 -85 190 -190c0 -43 -14 -82 -38 -114c60 -38 101 -105 101 -181c0 -119 -96 -215 -214 -215h-177c-1 0 -1 1 -1 1c-2 0 -2 -1 -3 -1zM215 589v-160h86c44 0 79 37 79 81s-35 79 -79 79h-86zM215 318
v-207h125c57 1 103 46 103 104c0 57 -46 102 -103 103h-125z" />
    <glyph glyph-name="C" unicode="C" horiz-adv-x="771" 
d="M440 0c-200 0 -366 161 -367 360c1 198 167 359 367 360c88 0 168 -29 231 -78c24 -20 28 -55 10 -80c-20 -25 -57 -29 -80 -11c-44 36 -99 55 -161 55c-69 0 -133 -28 -180 -72c-45 -46 -73 -106 -73 -174s28 -130 73 -174c47 -44 111 -72 180 -72c62 0 116 19 161 55
c23 17 60 13 80 -11c18 -25 14 -61 -10 -80c-63 -49 -143 -78 -231 -78z" />
    <glyph glyph-name="D" unicode="D" horiz-adv-x="719" 
d="M159 0c-31 0 -55 25 -55 55v590c0 31 24 55 55 55v0v0h118c193 0 349 -157 349 -349c0 -194 -156 -351 -349 -351h-118v0v0zM215 589v-478h62c132 1 238 107 238 240c0 131 -106 238 -238 238h-62z" />
    <glyph glyph-name="E" unicode="E" horiz-adv-x="593" 
d="M159 0c-31 0 -55 25 -55 55v590c0 31 24 55 55 55h1h2h324c29 0 55 -24 55 -55s-26 -56 -55 -56h-271v-183h233c30 0 55 -26 55 -55c0 -31 -25 -56 -55 -56h-233v-184h271c29 0 55 -25 55 -56c0 -30 -26 -55 -55 -55h-324c-2 0 -2 1 -2 1z" />
    <glyph glyph-name="F" unicode="F" horiz-adv-x="605" 
d="M159 0c-31 0 -55 25 -55 55v590c0 30 24 55 55 55h1h2h324c29 0 55 -25 55 -55c0 -31 -26 -56 -55 -56h-271v-183h233c30 0 55 -26 55 -55c0 -31 -25 -56 -55 -56h-233v-240c0 -30 -25 -55 -56 -55z" />
    <glyph glyph-name="G" unicode="G" horiz-adv-x="814" 
d="M442 0v0c-203 0 -369 159 -369 359c0 201 166 361 369 361c85 0 166 -29 228 -78c26 -19 30 -56 11 -81c-19 -24 -56 -29 -81 -9c-43 33 -98 54 -158 54c-72 0 -135 -27 -180 -73c-47 -45 -75 -106 -75 -174c0 -66 28 -127 75 -172c45 -46 108 -73 180 -73
c50 0 97 15 137 38v137h-143c-31 0 -57 26 -57 57c0 32 26 56 57 56h197h1h1c32 0 58 -24 58 -56v-221c0 -7 -2 -11 -3 -17c-1 -2 -1 -3 -2 -5v-1c-3 -9 -9 -17 -19 -24c-63 -49 -142 -78 -227 -78z" />
    <glyph glyph-name="H" unicode="H" horiz-adv-x="709" 
d="M159 0c-31 0 -55 24 -55 55v590c0 31 24 55 55 55s56 -24 56 -55v-240h259v240c0 31 24 55 55 55s56 -24 56 -55v-590c0 -31 -25 -55 -56 -55s-55 24 -55 55v240h-259v-240c0 -31 -25 -55 -56 -55z" />
    <glyph glyph-name="I" unicode="I" horiz-adv-x="305" 
d="M111 55v590c0 31 24 55 55 55v0c30 0 56 -24 56 -55v0v-590c0 -31 -26 -55 -56 -55v0c-31 0 -55 24 -55 55v0z" />
    <glyph glyph-name="J" unicode="J" horiz-adv-x="594" 
d="M87 241c30 10 61 -6 70 -35c18 -55 70 -95 131 -95c76 0 138 62 138 137v397c0 31 25 55 56 55c30 0 55 -24 55 -55v-397c0 -137 -112 -248 -249 -248c-110 0 -204 72 -236 172c-10 30 7 61 35 69z" />
    <glyph glyph-name="K" unicode="K" horiz-adv-x="715" 
d="M159 0c-31 0 -55 25 -55 55v585c0 29 24 55 55 55s55 -26 55 -55v-287l324 325c22 22 56 22 78 0c21 -21 21 -56 0 -78l-220 -219l222 -291c20 -23 16 -58 -8 -77c-10 -9 -22 -13 -35 -13c-15 0 -30 7 -41 20l-216 283l-104 -106v-142c0 -30 -24 -55 -55 -55z" />
    <glyph glyph-name="L" unicode="L" horiz-adv-x="563" 
d="M159 0c-31 0 -55 25 -55 55v590c0 30 24 55 55 55s56 -25 56 -55v-534h271c29 0 55 -25 55 -56c0 -30 -26 -55 -55 -55h-324h-2h-1z" />
    <glyph glyph-name="M" unicode="M" horiz-adv-x="844" 
d="M650 700c30 -1 56 -25 56 -55v-590c0 -30 -26 -55 -56 -55c-31 0 -55 25 -55 55v421l-144 -200c-11 -15 -27 -23 -45 -23h-1h-1c-18 0 -35 8 -46 23l-143 200v-421c0 -30 -25 -55 -56 -55c-30 0 -55 25 -55 55v590c0 30 25 55 55 55h3c16 0 34 -8 44 -23l199 -276
l199 276c11 15 27 23 45 23h1v0v0z" />
    <glyph glyph-name="N" unicode="N" horiz-adv-x="771" 
d="M214 470v-415c0 -30 -25 -55 -54 -55c-31 0 -55 25 -55 55v581v1c-1 17 7 35 22 46c25 17 59 12 76 -12l323 -447v412c0 29 24 54 54 54s55 -25 55 -54v-581c0 -30 -25 -55 -55 -55c-16 0 -31 8 -41 20c-2 2 -4 4 -5 6z" />
    <glyph glyph-name="O" unicode="O" horiz-adv-x="850" 
d="M417 720c92 0 180 -41 239 -107c62 -66 101 -154 101 -253s-39 -188 -101 -253c-59 -65 -147 -107 -239 -107v0c-96 0 -184 42 -245 107c-62 65 -99 154 -99 253s37 187 99 253c61 66 149 107 245 107zM575 186c41 43 68 106 68 174s-27 131 -68 175
c-42 45 -98 71 -158 71c-64 0 -120 -26 -162 -71c-42 -44 -68 -107 -68 -175s26 -131 68 -174c42 -45 98 -72 162 -72c60 0 116 27 158 72z" />
    <glyph glyph-name="P" unicode="P" horiz-adv-x="583" 
d="M553 485c0 -117 -96 -213 -215 -213h-123v-217c0 -30 -25 -55 -56 -55c-30 0 -55 25 -55 55v590c0 31 25 55 55 55h1v0h178c119 0 215 -96 215 -215zM215 589v-206h123c58 0 103 46 104 102c-1 58 -46 104 -104 104h-123z" />
    <glyph glyph-name="Q" unicode="Q" horiz-adv-x="844" 
d="M821 -16c20 -25 16 -61 -11 -83c-55 -42 -112 -63 -165 -63h-3c-70 0 -129 28 -183 60c-20 11 -41 15 -61 15c-33 0 -67 -14 -71 -17v0c-20 -11 -43 -9 -58 3c-1 1 -3 1 -6 2c-1 1 -1 1 -2 1c-5 7 -11 13 -14 23c-15 30 -1 63 27 77l3 2c-40 19 -78 45 -111 76
c-61 68 -100 160 -100 261c0 100 39 191 100 258c64 69 152 111 250 111s187 -42 248 -111c64 -67 102 -158 102 -258c0 -101 -38 -193 -102 -261c-31 -32 -69 -59 -111 -79l-23 -9c42 -23 80 -36 112 -36c29 0 57 7 98 38c25 20 61 15 81 -10zM184 341
c0 -71 26 -134 69 -180c41 -45 98 -72 163 -72c64 0 121 27 165 72c43 46 69 109 69 180s-26 134 -69 178c-44 46 -101 73 -165 73c-65 0 -122 -27 -163 -73c-43 -44 -69 -107 -69 -178z" />
    <glyph glyph-name="R" unicode="R" horiz-adv-x="625" 
d="M532 117c16 -5 29 -17 35 -34c10 -29 -6 -60 -35 -70c-4 -1 -12 -3 -22 -3h-1c-10 0 -25 2 -39 11c-13 8 -24 21 -32 35c-14 29 -21 65 -21 120c-1 19 -5 32 -12 43c-6 11 -18 21 -30 29c-21 14 -47 22 -56 24h-118v-217c0 -30 -25 -55 -56 -55s-55 25 -55 55v590
c0 31 24 55 55 55h1v0h178c119 0 214 -96 214 -215c0 -66 -30 -124 -78 -164c13 -10 25 -22 35 -37c20 -29 33 -66 33 -108c-1 -30 2 -49 4 -59zM324 383c57 0 103 46 103 102c0 58 -46 104 -103 104h-123v-206h123z" />
    <glyph glyph-name="S" unicode="S" horiz-adv-x="667" 
d="M90 101c-22 18 -25 51 -8 73v0c18 22 51 25 73 7v0c44 -36 120 -78 191 -77v0c50 0 95 15 125 37v0c30 22 43 47 43 72v0c0 13 -3 22 -9 32v0c-6 10 -15 20 -30 30v0c-29 19 -78 36 -137 47v0h-2v0c-47 9 -91 21 -129 39v0c-38 18 -71 43 -93 78v0c-15 24 -23 52 -23 82
v0c0 60 34 112 80 146v0c47 34 108 53 173 53v0c96 0 167 -47 218 -80v0c23 -16 30 -48 14 -71v0c-15 -24 -47 -31 -71 -15v0c-51 34 -100 64 -161 64v0c-45 0 -85 -14 -112 -34v0c-27 -20 -38 -42 -38 -63v0c0 -12 2 -20 7 -28v0c5 -8 14 -17 27 -26v0
c26 -18 71 -34 125 -44v0h2v0c51 -10 98 -23 138 -42v0c41 -20 77 -46 100 -83v0c15 -24 24 -54 24 -85v0c0 -64 -36 -119 -86 -155v0c-49 -36 -114 -57 -185 -57v0c-108 1 -199 55 -256 100v0z" />
    <glyph glyph-name="T" unicode="T" horiz-adv-x="648" 
d="M587 645c0 -30 -25 -56 -55 -56h-159v-534c0 -31 -24 -55 -55 -55c-30 0 -55 24 -55 55v534h-158c-31 0 -55 26 -55 56c0 31 24 55 55 55h427c30 0 55 -24 55 -55z" />
    <glyph glyph-name="U" unicode="U" horiz-adv-x="814" 
d="M683 289c0 -159 -129 -289 -289 -289c-161 0 -289 130 -289 289v356c0 31 24 55 55 55c30 0 56 -24 56 -55v-356c0 -98 80 -178 178 -178c99 0 178 80 178 178v356c0 31 25 55 56 55s55 -24 55 -55v-356z" />
    <glyph glyph-name="V" unicode="V" horiz-adv-x="750" 
d="M333 10h-1c-2 2 -4 3 -7 5c0 1 -1 1 -1 3c-2 2 -4 4 -5 6c0 0 -1 0 -1 1c-1 2 -3 6 -5 8l-245 584c-12 27 1 60 30 71c27 12 59 -1 71 -29l195 -463l195 463c12 28 45 41 72 29c28 -11 41 -44 30 -71l-247 -584c-1 -2 -2 -6 -4 -8c0 -1 0 -1 -1 -1c-1 -2 -4 -4 -5 -6
s-1 -2 -2 -3c-2 -2 -4 -3 -6 -5l-2 -1s-5 -4 -8 -5v0c-1 0 -1 0 -2 -1c-3 0 -5 -1 -8 -2h-2c-4 -1 -7 -1 -10 -1s-7 0 -10 1h-2c-2 1 -6 2 -8 2c0 1 -1 1 -1 1h-1c-2 1 -6 4 -9 6z" />
    <glyph glyph-name="W" unicode="W" horiz-adv-x="1102" 
d="M998 688c27 -11 40 -44 28 -71l-245 -583c-1 -3 -3 -7 -5 -9l-1 -1c-1 -2 -3 -4 -5 -6c0 -2 -1 -2 -1 -3c-2 -1 -5 -3 -7 -5h-1c-3 -2 -5 -5 -9 -6h-1s-1 0 -1 -1c-2 0 -5 -1 -8 -2h-2c-3 -1 -6 -1 -10 -1c-3 0 -6 0 -9 1h-3c-3 1 -5 2 -7 2c-1 1 -1 1 -2 1v0
c-4 1 -7 4 -9 6h-1c-3 2 -5 4 -7 5c-1 1 -1 1 -2 3s-3 4 -4 6c-2 0 -2 1 -2 1c-2 2 -3 6 -4 9l-131 310l-131 -310c-1 -3 -3 -7 -4 -9c-1 0 -1 -1 -1 -1l-6 -6c0 -2 -1 -2 -1 -3c-2 -1 -4 -3 -6 -5h-2c-3 -2 -6 -5 -8 -6h-1s-1 0 -1 -1c-4 0 -6 -1 -8 -2h-3
c-3 -1 -6 -1 -9 -1v0v0v0c-3 0 -7 0 -10 1h-3c-3 1 -5 2 -7 2c-1 1 -1 1 -2 1v0c-3 1 -7 4 -9 6h-1c-3 2 -4 4 -7 5c-1 1 -1 1 -2 3c-2 2 -3 4 -5 6v1c-2 2 -3 6 -5 9l-246 583c-11 27 1 60 30 71c27 12 60 -1 71 -29l196 -463l129 307c9 22 30 34 52 34c21 0 42 -12 52 -34
l129 -307l195 463c12 28 44 41 73 29z" />
    <glyph glyph-name="X" unicode="X" horiz-adv-x="722" 
d="M593 681c25 -17 29 -51 12 -76l-190 -258l190 -260c17 -24 13 -59 -12 -76c-10 -7 -21 -11 -32 -11c-18 0 -34 9 -45 23l-168 231l-169 -231c-11 -14 -27 -23 -44 -23c-12 0 -23 4 -32 11c-25 17 -30 52 -13 76l190 260l-190 258c-17 25 -12 59 13 76c24 19 59 14 76 -12
l169 -230l168 230c19 26 52 31 77 12z" />
    <glyph glyph-name="Y" unicode="Y" horiz-adv-x="604" 
d="M579 682c24 -18 29 -52 12 -76l-205 -281v-270c0 -31 -24 -55 -55 -55c-29 0 -55 24 -55 55v270l-203 281c-19 24 -14 58 11 76s59 13 76 -12l171 -234l171 234c19 25 53 30 77 12z" />
    <glyph glyph-name="Z" unicode="Z" horiz-adv-x="667" 
d="M603 614v-2l-368 -501h322c31 0 56 -25 56 -56s-25 -55 -56 -55h-431v0v0c-3 0 -6 0 -10 1c-1 0 -2 0 -3 1c-2 0 -4 1 -7 1c-1 1 -2 1 -3 3c-1 0 -3 1 -5 2s-3 1 -4 2v1c-1 0 -2 1 -3 2s-3 3 -4 5c-2 1 -3 2 -4 3s-2 3 -3 4c-1 3 -2 4 -2 5c-1 2 -3 3 -3 5
c-1 2 -1 4 -2 6c0 1 -1 2 -1 4c0 3 -1 5 -1 7v3v1c0 3 0 5 1 7v5c1 1 1 3 2 5c0 1 1 3 1 5c2 1 3 3 3 4c1 1 2 3 3 5h1l367 502h-323c-31 0 -55 26 -55 56c0 31 24 55 55 55h431h1h7c1 0 3 -1 4 -1c3 0 4 -1 6 -1c1 -1 3 -1 4 -2c3 0 4 -2 5 -3c2 -1 3 -2 5 -3h1
c2 -1 2 -2 3 -3c2 -1 3 -3 4 -4s2 -3 3 -4c2 -1 3 -2 4 -4s2 -4 3 -5c0 -1 1 -3 2 -4c0 -3 1 -5 1 -6c2 -2 2 -3 2 -5c1 -3 1 -4 1 -6v-4v0v-7c-1 -2 -1 -3 -1 -4c0 -3 -2 -4 -2 -6c-1 -2 -1 -3 -2 -6c-1 -1 -1 -2 -2 -3c-1 -2 -2 -4 -3 -5z" />
    <glyph glyph-name="a" unicode="a" horiz-adv-x="619" 
d="M516 446v-197v0v0v-196c0 -29 -24 -53 -53 -53c-26 0 -46 19 -52 43c-38 -27 -83 -43 -133 -43v0c-68 0 -127 28 -170 73c-43 46 -68 108 -68 176c0 69 25 131 68 176c43 46 102 75 170 75c50 0 95 -17 133 -44c6 25 26 44 52 44c29 0 53 -24 53 -54zM371 146
c24 26 39 62 39 103c0 42 -15 78 -39 103c-24 27 -58 41 -93 41c-36 0 -70 -14 -93 -41c-24 -25 -38 -61 -38 -103c0 -41 14 -77 38 -103c23 -25 57 -39 93 -39c35 0 69 14 93 39z" />
    <glyph glyph-name="b" unicode="b" horiz-adv-x="660" 
d="M93 54v195v0v1v396c0 29 24 54 54 54c31 0 55 -25 55 -54v-188c37 26 85 42 134 42c135 0 243 -114 243 -251c0 -135 -108 -249 -243 -249c-50 0 -98 17 -136 43c-5 -24 -26 -43 -53 -43c-30 0 -54 25 -54 54zM242 350c-25 -25 -40 -61 -40 -101c0 -38 15 -74 40 -99
c25 -26 57 -41 94 -41c36 0 69 15 94 41c25 25 40 61 40 99c0 40 -15 76 -40 101c-25 26 -58 41 -94 41c-37 0 -69 -15 -94 -41z" />
    <glyph glyph-name="c" unicode="c" horiz-adv-x="571" 
d="M312 0c-138 0 -254 112 -254 249c0 139 116 250 254 251c60 0 116 -22 159 -55c23 -18 27 -52 11 -74c-20 -24 -52 -28 -75 -10c-26 19 -58 32 -95 32c-81 0 -148 -67 -148 -144s67 -143 148 -143c36 0 69 13 95 32c22 17 55 13 75 -11c16 -22 12 -54 -11 -74
c-43 -31 -99 -53 -159 -53v0z" />
    <glyph glyph-name="d" unicode="d" horiz-adv-x="660" 
d="M546 249v-195c0 -29 -24 -54 -54 -54c-27 0 -48 19 -53 43c-38 -26 -86 -43 -136 -43c-135 0 -243 114 -243 249c0 137 108 251 243 251c49 0 97 -16 134 -42v188c0 29 24 54 55 54c30 0 54 -25 54 -54v-396v-1v0zM397 350c-25 26 -57 41 -94 41c-36 0 -69 -15 -94 -41
c-25 -25 -40 -61 -40 -101c0 -38 15 -74 40 -99c25 -26 58 -41 94 -41c37 0 69 15 94 41c25 25 40 61 40 99c0 40 -15 76 -40 101z" />
    <glyph glyph-name="e" unicode="e" horiz-adv-x="609" 
d="M302 0c-137 1 -243 114 -244 250c1 136 107 250 244 250c130 0 233 -97 241 -232v-5v0v0c0 -2 0 -7 -1 -9c-3 -24 -24 -40 -52 -40h-318c5 -23 16 -49 34 -66c21 -24 61 -42 96 -45c36 -3 79 6 104 25c21 22 62 19 75 3c13 -14 23 -44 0 -65c-49 -45 -108 -66 -179 -66z
M302 405c-85 -4 -127 -65 -135 -106h283c-10 40 -61 99 -148 106z" />
    <glyph glyph-name="f" unicode="f" horiz-adv-x="362" 
d="M266 584c-1 0 -9 -14 -9 -51v-14h30c30 0 55 -24 55 -55c0 -30 -25 -55 -55 -55h-30v-353c0 -30 -24 -55 -55 -55s-55 25 -55 55v353h-26c-31 0 -56 25 -56 55c0 31 25 55 56 55h26v14c0 37 4 69 19 98c14 30 42 53 72 62c20 6 39 8 60 8c30 0 55 -25 55 -55
c0 -31 -25 -56 -55 -56c-13 0 -22 -1 -26 -3c-4 -1 -5 -2 -6 -3z" />
    <glyph glyph-name="g" unicode="g" horiz-adv-x="660" 
d="M540 248v-1v-186c0 -131 -107 -240 -240 -240c-37 0 -74 9 -105 25c-26 12 -38 45 -24 72c13 27 44 37 72 25c17 -9 36 -14 57 -14c65 0 118 46 131 107c-36 -25 -82 -40 -131 -40v0c-66 0 -127 29 -170 76c-43 44 -70 106 -70 176c0 69 27 131 70 178
c43 45 104 74 170 74c52 0 98 -16 134 -42c5 24 27 42 53 42c30 0 53 -24 53 -53v-199v0zM395 145c22 23 38 61 38 103c0 40 -16 78 -38 102c-26 28 -57 43 -95 43c-35 0 -68 -15 -92 -43c-24 -24 -40 -62 -40 -102c0 -42 16 -80 40 -103c24 -27 57 -41 92 -41
c38 0 69 14 95 41z" />
    <glyph glyph-name="h" unicode="h" horiz-adv-x="613" 
d="M204 281v-226c0 -31 -25 -55 -56 -55c-25 0 -46 18 -53 41c-1 4 -2 9 -2 14v590c0 31 25 55 55 55c31 0 56 -24 56 -55v-174c32 17 68 29 107 29c121 0 218 -99 218 -219v-226c0 -31 -24 -55 -55 -55s-55 24 -55 55v226c0 59 -48 107 -108 108c-59 -1 -106 -49 -107 -108
z" />
    <glyph glyph-name="i" unicode="i" horiz-adv-x="281" 
d="M148 499c31 0 54 -23 54 -55v-390c0 -30 -23 -54 -54 -54c-30 0 -54 24 -54 54v390c0 32 24 55 54 55zM202 646v-21c0 -30 -23 -55 -54 -55c-30 0 -54 25 -54 55v21c0 30 24 54 54 54c31 0 54 -24 54 -54z" />
    <glyph glyph-name="j" unicode="j" horiz-adv-x="249" 
d="M106 569c-30 0 -55 26 -55 55v20c0 32 25 55 55 55s54 -23 54 -55v-20c0 -29 -24 -55 -54 -55zM50 -177c-32 0 -55 23 -55 55c0 29 23 53 55 53v0v514c0 31 25 55 54 55c31 0 54 -24 54 -55v-514c0 -59 -48 -108 -108 -108z" />
    <glyph glyph-name="k" unicode="k" horiz-adv-x="560" 
d="M148 0c-31 0 -55 25 -55 55v590c0 30 24 55 55 55s56 -25 56 -55v-346l205 205c21 21 57 21 78 0c22 -22 22 -57 0 -78l-150 -150l154 -185c19 -24 16 -59 -8 -78c-10 -9 -23 -13 -35 -13c-16 0 -32 7 -42 20l-147 178l-55 -55v-88c0 -30 -25 -55 -56 -55z" />
    <glyph glyph-name="l" unicode="l" horiz-adv-x="249" 
d="M100 645c0 30 25 55 55 55c31 0 56 -25 56 -55v-590c0 -30 -25 -55 -56 -55c-30 0 -55 25 -55 55v590z" />
    <glyph glyph-name="m" unicode="m" horiz-adv-x="951" 
d="M615 393c-57 0 -102 -45 -104 -100v-3v-237c0 -29 -24 -53 -53 -53v0v0c-28 0 -54 24 -54 53v237v3c-1 55 -47 100 -103 100c-55 0 -101 -46 -101 -103v-237v0c0 -2 -1 -5 -1 -7v-3c-1 -2 -1 -4 -3 -6v-5v0c-9 -18 -29 -32 -50 -32c-4 0 -7 1 -10 1c-24 6 -43 26 -43 52
v237v1v155c0 31 24 54 53 54c21 0 40 -11 48 -30c32 19 69 30 107 30c63 0 119 -26 157 -69c37 43 94 69 157 69c115 0 208 -94 208 -210v-237c0 -29 -24 -53 -53 -53s-54 24 -54 53v237c0 57 -46 103 -101 103z" />
    <glyph glyph-name="n" unicode="n" horiz-adv-x="613" 
d="M301 500c116 0 209 -95 209 -208v-239c0 -29 -23 -53 -52 -53c-28 0 -53 24 -53 53v239c0 56 -47 101 -104 101c-56 0 -100 -45 -100 -101v-239v0c0 -3 0 -6 -2 -10c-5 -24 -27 -43 -53 -43c-30 0 -53 24 -53 53v239v0v155c0 29 23 53 53 53c21 0 40 -12 49 -31
c30 19 67 31 106 31z" />
    <glyph glyph-name="o" unicode="o" horiz-adv-x="625" 
d="M311 -3c-69 0 -127 29 -172 76c-43 44 -69 106 -69 176c0 68 26 127 69 175c45 47 103 76 172 76c66 0 126 -29 167 -76c45 -48 70 -107 70 -175v0c0 -70 -25 -132 -70 -176c-41 -47 -101 -76 -167 -76v0zM215 353c-23 -27 -36 -63 -36 -104c0 -43 13 -78 36 -106
c25 -24 58 -37 96 -37c35 0 67 13 92 37c25 28 39 63 39 106v0c0 41 -14 77 -39 104c-25 22 -57 38 -92 38c-38 0 -71 -16 -96 -38z" />
    <glyph glyph-name="p" unicode="p" horiz-adv-x="660" 
d="M146 -188c-29 0 -53 26 -53 54v382v1v0v198c0 29 24 53 53 53c28 0 51 -19 55 -41c37 24 85 41 136 41c133 0 242 -114 242 -251s-109 -248 -242 -248c-50 0 -98 15 -134 41v-176c0 -28 -25 -54 -57 -54zM242 350c-26 -26 -39 -62 -39 -101s13 -77 39 -100
c25 -28 58 -42 95 -42c34 0 68 14 94 42c23 23 39 61 39 100s-16 75 -39 101c-26 27 -60 41 -94 41c-37 0 -70 -14 -95 -41z" />
    <glyph glyph-name="q" unicode="q" horiz-adv-x="660" 
d="M492 -187c-31 0 -55 25 -55 53v176c-38 -26 -84 -42 -134 -42c-135 0 -243 112 -243 250c0 137 108 250 243 250c51 0 97 -17 136 -42c4 23 26 42 53 42c30 0 54 -24 54 -54v-196v0v-1v-383c0 -28 -24 -53 -54 -53zM396 349c-23 27 -57 43 -93 43c-35 0 -68 -16 -94 -43
c-24 -24 -41 -61 -41 -99c0 -41 17 -77 41 -101c26 -28 59 -42 94 -42c36 0 70 14 93 42c26 24 41 60 41 101c0 38 -15 75 -41 99z" />
    <glyph glyph-name="r" unicode="r" horiz-adv-x="439" 
d="M348 499c30 0 53 -23 53 -52c0 -28 -23 -53 -53 -53c-23 0 -43 -6 -60 -19c-19 -12 -34 -29 -46 -48c-24 -32 -36 -70 -41 -84v-190c0 -29 -25 -53 -55 -53c-29 0 -53 24 -53 53v394c0 29 24 52 53 52c30 0 55 -23 55 -52v-7c6 7 14 15 21 20c33 22 76 40 126 39z" />
    <glyph glyph-name="s" unicode="s" horiz-adv-x="492" 
d="M76 69c-22 18 -25 52 -7 74v0c18 24 53 27 75 8v0c26 -22 71 -45 110 -44v0c27 0 52 9 68 19v0c14 12 18 22 18 30v0c0 5 -1 7 -3 10v0c-1 3 -5 7 -13 12v0c-14 10 -44 21 -80 28v0v0v0h-1c-31 6 -61 14 -87 26v0c-27 13 -51 31 -69 58v0c-11 18 -17 40 -17 63v0
c0 46 26 85 59 110v0c35 24 77 37 123 37v0c69 0 118 -33 150 -55v0v0c24 -16 31 -49 16 -74v0c-16 -24 -49 -31 -74 -14v0c-32 21 -60 37 -92 37v0c-25 0 -47 -8 -60 -18v0c-13 -9 -16 -18 -16 -23v0c0 -4 0 -5 2 -8v0c1 -2 4 -6 11 -10v0c13 -9 39 -18 73 -24v0l1 -1h1
c33 -6 64 -15 93 -29v0c27 -12 54 -31 71 -59v0c12 -20 19 -43 19 -66v0c0 -49 -27 -90 -63 -116v0c-36 -25 -81 -40 -130 -40v0c-78 1 -138 37 -178 69v0z" />
    <glyph glyph-name="t" unicode="t" horiz-adv-x="400" 
d="M262 500c30 0 56 -24 56 -55c0 -30 -26 -55 -56 -55h-25v-279v0c31 0 55 -25 55 -56s-24 -55 -55 -55c-61 0 -111 50 -111 111v279h-29c-31 0 -55 25 -55 55c0 31 24 55 55 55h29v145v0c0 31 25 55 56 55s55 -24 55 -55v-145h25z" />
    <glyph glyph-name="A" unicode="A" horiz-adv-x="646" 
d="M510 35l-49 130h-243l-49 -130c-9 -22 -30 -35 -52 -35c-7 0 -13 1 -19 3c-29 11 -43 43 -33 72l221 589c9 22 31 36 53 35c23 1 44 -13 53 -35l221 -589c10 -29 -4 -61 -33 -72c-5 -2 -12 -3 -19 -3c-22 0 -43 13 -51 35zM258 275h162l-81 215z" />
    <glyph glyph-name="u" unicode="u" horiz-adv-x="613" 
d="M502 208c0 -114 -96 -208 -211 -208c-114 0 -208 94 -208 208v239c0 28 24 53 53 53c30 0 53 -25 53 -53v-239c0 -57 45 -102 102 -102c58 0 104 45 105 102v239v0c0 28 22 53 52 53c28 0 54 -25 54 -53v-239z" />
    <glyph glyph-name="v" unicode="v" horiz-adv-x="582" 
d="M459 488c28 -12 41 -41 29 -68l-164 -388c-1 -3 -3 -6 -4 -7c0 -1 -1 -1 -1 -1c-2 -2 -4 -5 -6 -7c0 -1 -1 -1 -1 -1c-2 -3 -4 -4 -6 -6c0 0 -1 0 -1 -1c-2 -2 -4 -4 -7 -5h-2v-1c-3 0 -6 -1 -8 -2h-2c-4 -1 -7 -1 -10 -1v0c-2 0 -5 0 -9 1h-2c-3 1 -5 2 -8 2v1h-2
c-3 1 -5 3 -9 5c0 1 -1 1 -1 1c-2 2 -4 3 -6 6c-1 0 -1 0 -2 1c-1 2 -3 5 -5 7c-1 0 -1 0 -1 1c-2 1 -3 4 -4 7l-162 388c-12 27 1 56 29 68c24 12 55 -2 67 -29l115 -272l116 272c11 27 41 41 67 29z" />
    <glyph glyph-name="w" unicode="w" horiz-adv-x="861" 
d="M707 489c27 -12 41 -42 29 -69l-165 -388c-1 -2 -2 -5 -4 -8c0 -1 -1 -1 -1 -1c-1 -2 -3 -4 -5 -6c-1 -1 -2 -1 -2 -1c-2 -2 -4 -4 -6 -5c0 -1 -1 -1 -1 -2c-3 -2 -5 -4 -9 -5v0s-1 0 -1 -1c-2 0 -5 -1 -8 -2h-2c-3 -1 -6 -1 -10 -1v0v0v0v0c-3 0 -6 0 -9 1h-2
c-2 1 -4 2 -7 2l-1 1h-1c-3 1 -6 3 -9 6v1c-3 1 -4 3 -6 5c0 0 -2 0 -2 1c-2 2 -4 4 -5 6c0 0 -1 0 -1 1c-2 3 -3 6 -4 8l-73 173l-71 -173c-1 -2 -3 -5 -5 -8v-1l-6 -6c0 -1 -1 -1 -1 -1l-6 -6v0c-4 -3 -6 -5 -9 -6h-2s-1 0 -1 -1c-2 0 -5 -1 -6 -2h-2c-4 -1 -7 -1 -10 -1
c-4 0 -7 0 -10 1h-3c-2 1 -4 2 -6 2c-1 1 -1 1 -2 1v0c-3 1 -7 3 -9 6c-1 0 -1 0 -1 1c-1 1 -3 3 -6 5l-2 1c-1 2 -3 4 -4 6c-1 0 -1 0 -1 1c-2 3 -3 6 -5 8l-164 388c-12 27 1 57 29 69c24 11 55 -1 66 -30l118 -269l70 167c9 20 28 32 49 32c22 0 41 -12 49 -32l71 -167
l118 269c10 29 42 41 67 30z" />
    <glyph glyph-name="x" unicode="x" horiz-adv-x="570" 
d="M444 483c21 -16 27 -50 10 -71l-119 -164l119 -165c17 -22 11 -57 -10 -72c-10 -7 -21 -11 -32 -11c-16 0 -31 9 -44 22l-100 137l-100 -137c-11 -13 -25 -22 -41 -22c-11 0 -23 4 -32 11c-23 15 -28 50 -11 72l120 165l-120 164c-17 21 -12 55 11 71c24 17 55 12 73 -11
l100 -134l100 134c19 23 51 28 76 11z" />
    <glyph glyph-name="y" unicode="y" horiz-adv-x="588" 
d="M416 500c29 0 54 -23 54 -53v-236v0v-142c0 -134 -106 -239 -239 -239c-36 0 -73 10 -103 25c-28 12 -38 43 -26 71c13 24 47 35 71 22c19 -9 38 -14 58 -14c59 1 109 39 125 91c-28 -16 -62 -24 -95 -24c-115 0 -209 95 -209 210v236c0 30 25 53 52 53
c31 0 53 -23 53 -53v-236c0 -58 47 -102 104 -102s103 44 103 102v236c0 30 22 53 52 53z" />
    <glyph glyph-name="z" unicode="z" horiz-adv-x="554" 
d="M445 417v-1l-226 -310h184c28 0 53 -23 53 -53c0 -29 -25 -53 -53 -53h-289v0v0c-3 0 -6 0 -10 1h-3c-2 1 -4 2 -6 2c-2 1 -3 1 -4 2c-1 0 -3 2 -4 2c-1 2 -2 2 -2 3c-1 0 -1 0 -1 1c-1 0 -2 1 -3 2s-4 3 -4 3c-2 3 -3 4 -4 5c-1 2 -2 3 -3 4c-2 1 -2 2 -2 4
c-2 1 -3 2 -3 5c-1 0 -1 2 -2 5c0 1 -1 3 -1 4v7c-1 1 -1 2 -1 3v1c0 2 1 5 1 7v4c1 1 1 3 2 5c0 2 1 4 1 5c1 0 3 3 3 3c0 2 2 4 3 5h1l225 311h-183c-28 0 -53 23 -53 53c0 29 25 53 53 53h289v0c2 0 4 -1 6 -1h5c2 -1 4 -1 5 -2c2 0 4 -1 5 -1c1 -1 2 -3 3 -3
c2 0 4 -2 6 -3c1 0 1 -1 1 -1c1 0 2 -1 2 -2c1 -1 3 -2 5 -5c1 0 2 -2 3 -3c1 -2 2 -3 3 -4s1 -2 3 -2c0 -3 2 -4 2 -6c1 -1 1 -3 1 -5c1 -2 1 -4 2 -5v-6c0 -1 1 -3 1 -4v-1c-1 -2 -1 -5 -1 -5c0 -3 0 -4 -1 -6c0 -1 0 -3 -1 -5c0 -2 -1 -4 -3 -5v-3c-2 -2 -3 -4 -5 -5z
" />
    <glyph glyph-name="ampersand" unicode="&#x26;" horiz-adv-x="696" 
d="M578 405c4 -13 5 -26 5 -39c1 -38 -17 -76 -43 -96c-5 -2 -8 -4 -11 -6c1 -8 1 -16 1 -24c0 -133 -108 -240 -241 -240s-240 107 -240 240c0 70 30 133 78 176c-18 29 -28 62 -28 98c0 103 84 186 186 186c103 0 186 -83 186 -186c0 -31 -24 -55 -55 -55
c-30 0 -56 24 -56 55c0 42 -33 75 -75 75c-41 0 -75 -33 -75 -75c0 -26 13 -48 32 -61c23 -18 30 -49 15 -74h-1c0 -1 -1 -2 -1 -4c-3 -4 -7 -7 -11 -11c-1 -1 -2 -2 -3 -2c-1 -1 -1 -1 -3 -2s-3 -2 -5 -3c-43 -21 -73 -66 -73 -117c0 -72 57 -129 129 -129s130 57 130 129
v6c-52 -1 -71 -13 -76 -19c-7 -7 -8 -13 -8 -22c0 -6 1 -10 1 -11c8 -29 -8 -60 -38 -69c-4 -1 -10 -2 -15 -2c-25 0 -46 15 -53 40c-2 3 -6 19 -6 42c-1 26 7 69 41 101c34 33 86 51 156 51c11 0 22 0 33 -1h4c4 0 7 0 11 1c2 1 2 1 3 2v7c0 3 0 8 -1 15c-8 30 11 59 41 66
s60 -12 66 -42z" />
    <glyph glyph-name="at" unicode="@" horiz-adv-x="980" 
d="M402 700c194 0 350 -157 350 -349c0 -58 -13 -113 -39 -161v0v-1c-2 -2 -10 -18 -25 -35c-17 -17 -41 -39 -78 -48c-9 -2 -17 -3 -26 -3c-32 -1 -62 16 -76 37c-8 10 -13 20 -16 30c-27 -14 -57 -22 -90 -22v0c-54 0 -104 23 -138 60s-55 87 -55 143c0 54 21 105 55 141
c34 37 84 61 138 61c55 0 104 -24 139 -61c34 -36 55 -87 55 -141v-8v-4v-119c2 2 4 3 7 6c6 6 12 14 13 16c16 32 25 69 25 109c0 131 -106 238 -239 238c-131 0 -238 -107 -238 -238c0 -133 107 -239 238 -239c21 0 41 2 60 6c29 8 60 -10 67 -39c7 -30 -10 -60 -40 -68
c-28 -7 -57 -11 -87 -11c-193 1 -349 157 -349 351c0 192 156 349 349 349zM460 284c15 17 25 40 25 67c0 26 -10 49 -25 66c-16 15 -35 25 -58 25c-22 0 -42 -10 -57 -25c-16 -17 -25 -40 -25 -66c0 -27 9 -50 25 -67c15 -16 35 -25 57 -25c23 0 42 9 58 25z" />
    <glyph glyph-name="parenleft" unicode="(" horiz-adv-x="430" 
d="M191 -55c-32 25 -56 59 -73 96v0c-34 75 -47 166 -47 265v0c0 74 7 144 25 206v0c18 61 46 116 95 154v0c33 26 75 40 119 40v0c35 0 63 -29 63 -63v0c0 -35 -28 -64 -63 -64v0c-19 0 -30 -4 -42 -13v0c-12 -9 -24 -25 -35 -49v0c-23 -47 -36 -124 -35 -211v0
c-1 -66 6 -125 20 -171v0c13 -46 32 -76 50 -89v0c12 -9 23 -13 42 -14v0v0c35 0 63 -28 63 -63v0c0 -35 -28 -63 -63 -63v0h-2v0c-43 0 -85 14 -117 39v0z" />
    <glyph glyph-name="parenright" unicode=")" horiz-adv-x="430" 
d="M242 -55c-32 -25 -74 -39 -117 -39v0h-2v0c-35 0 -63 28 -63 63v0c0 35 28 63 63 63v0v0c19 1 30 5 42 14v0c18 13 37 43 50 89v0c14 46 21 105 20 171v0c1 87 -12 164 -35 211v0c-11 24 -23 40 -35 49v0c-12 9 -23 13 -42 13v0c-35 0 -63 29 -63 64v0c0 34 28 63 63 63
v0c44 0 86 -14 119 -40v0c49 -38 77 -93 95 -154v0c18 -62 25 -132 25 -206v0c0 -99 -13 -190 -47 -265v0c-17 -37 -41 -71 -73 -96z" />
    <glyph glyph-name="plus" unicode="+" horiz-adv-x="620" 
d="M261 158v139h-142c-30 0 -55 24 -55 55c0 30 25 55 55 55h142v139c0 32 25 57 57 57c31 0 57 -25 57 -57v-139h142c30 0 55 -25 55 -55c0 -31 -25 -55 -55 -55h-142v-139c0 -32 -26 -57 -57 -57c-32 0 -57 25 -57 57z" />
    <glyph glyph-name="zero" unicode="0" horiz-adv-x="710" 
d="M133 111c-44 64 -67 148 -68 239v0c1 92 24 175 68 239v0c42 64 107 111 186 111v0c77 0 143 -47 185 -111v0c43 -64 67 -147 67 -239v0c0 -91 -24 -175 -67 -239v0c-42 -63 -108 -111 -185 -111v0c-79 0 -144 48 -186 111v0zM412 173c28 42 48 106 48 177v0
c0 72 -20 135 -48 178v0c-29 42 -62 62 -93 61v0c-31 1 -65 -19 -95 -61v0c-28 -43 -48 -106 -48 -178v0c0 -71 20 -135 48 -177v0c30 -43 64 -62 95 -62v0c31 0 64 19 93 62v0z" />
    <glyph glyph-name="one" unicode="1" horiz-adv-x="335" 
d="M273 648v-3v-590c0 -31 -26 -55 -56 -55c-31 0 -55 24 -55 55v492l-40 -23c-9 -6 -19 -8 -28 -8c-19 0 -37 10 -47 28c-17 25 -8 60 18 75l123 73c1 1 3 1 4 2c2 0 3 2 5 3c2 0 4 1 6 1c1 1 3 1 4 1c2 1 5 1 7 1h3h1h7c1 -1 3 -1 4 -1c3 0 4 -1 6 -2c1 0 3 0 4 -1
c3 -2 4 -3 6 -3c1 -1 2 -2 4 -3c1 -1 3 -2 4 -3c2 -1 3 -3 4 -4s2 -2 3 -4l4 -4l1 -2c0 -1 1 -2 1 -3c1 -2 2 -3 2 -5c1 -2 1 -4 2 -5c0 -2 1 -4 1 -5c0 -3 0 -5 2 -7z" />
    <glyph glyph-name="two" unicode="2" horiz-adv-x="590" 
d="M462 111c31 0 55 -25 55 -56s-24 -55 -55 -55h-354h-1h-1c-15 0 -31 6 -41 18c-21 23 -19 57 3 78l296 268c29 26 42 60 42 96c0 32 -11 62 -33 87c-26 29 -61 42 -96 42c-31 0 -62 -11 -87 -33l-31 -28c-23 -21 -57 -19 -78 4c-20 23 -19 57 4 78l31 28
c45 42 104 62 161 62c65 0 131 -27 178 -79c42 -45 62 -104 62 -161c0 -65 -27 -131 -79 -178l-189 -171h213z" />
    <glyph glyph-name="three" unicode="3" horiz-adv-x="610" 
d="M374 474c26 -12 50 -28 70 -49c49 -48 73 -112 73 -175s-24 -127 -73 -176c-48 -48 -112 -73 -176 -73v0c-63 0 -127 25 -175 73c-22 22 -22 58 0 80s58 22 80 0c26 -26 60 -39 95 -39s69 13 96 39c27 27 40 61 40 96s-13 69 -40 95c-26 27 -60 39 -95 40
c-16 -1 -31 6 -41 18c-1 0 -1 0 -1 1c-23 22 -23 57 -2 80l102 104h-162c-31 0 -56 25 -56 57c0 31 25 56 56 56h295c32 0 57 -25 57 -56c0 -10 -3 -19 -7 -27c-3 -5 -6 -10 -10 -14z" />
    <glyph glyph-name="four" unicode="4" horiz-adv-x="664" 
d="M544 241c31 0 56 -25 56 -55c0 -31 -25 -55 -56 -55h-10v-76c0 -31 -24 -55 -55 -55s-55 24 -55 55v76h-313h-1h-1c-12 0 -24 3 -34 12c-25 19 -28 53 -9 77l370 460c1 0 1 1 2 2s2 2 3 4c3 1 4 2 5 3s3 2 4 3c2 1 3 2 6 2c1 2 2 3 4 3c1 1 3 1 6 2c1 0 3 0 4 1h7h2h2h6
c2 -1 3 -1 5 -1c1 -1 4 -1 6 -2c1 0 3 -1 4 -1c2 -2 4 -3 5 -4c2 -1 3 -2 5 -3c0 0 1 0 1 -1c1 0 3 -1 3 -2l4 -4s2 -3 3 -4s2 -2 4 -5c0 -1 1 -3 2 -4c1 -2 1 -3 2 -6c0 -1 1 -3 1 -4c1 -2 1 -3 1 -6c0 -2 1 -3 1 -5v-3v-404h10zM424 241v247l-199 -247h199z" />
    <glyph glyph-name="five" unicode="5" horiz-adv-x="605" 
d="M259 497c63 0 127 -24 175 -73c49 -48 73 -112 73 -176c0 -63 -25 -127 -73 -175c-48 -49 -112 -73 -175 -73h-2c-62 0 -127 24 -174 73c-23 21 -23 57 0 80c21 22 58 22 80 0c26 -27 60 -40 96 -40c34 0 69 13 95 40c26 26 40 61 40 95c0 36 -13 70 -40 96
c-26 27 -60 39 -95 39c-34 0 -70 -12 -96 -39c-22 -22 -58 -22 -80 0c-4 4 -7 9 -11 13c0 2 0 3 -1 3c0 2 -1 4 -2 5c0 3 -1 5 -1 7c0 1 -1 1 -1 2c-1 6 -1 12 0 17l30 259c3 17 12 31 25 40c2 1 3 1 4 2s2 1 3 2c8 4 16 6 26 6h295c32 0 57 -25 57 -57
c0 -30 -25 -56 -57 -56h-246l-12 -99c22 6 45 9 67 9z" />
    <glyph glyph-name="six" unicode="6" horiz-adv-x="642" 
d="M308 484c134 0 243 -108 243 -242s-109 -242 -243 -242c-126 0 -229 95 -241 217c0 1 0 1 -1 2c-1 19 -2 38 -2 57c0 67 10 139 35 205s66 129 129 171c42 28 93 45 150 47c31 1 56 -22 58 -53c1 -30 -23 -55 -54 -58c-38 -1 -68 -12 -94 -28c-25 -17 -46 -40 -63 -70
c-5 -8 -9 -17 -13 -26c29 13 62 20 96 20zM308 111c73 0 132 58 132 131c0 72 -59 132 -132 132s-131 -60 -131 -132c0 -73 58 -131 131 -131z" />
    <glyph glyph-name="seven" unicode="7" horiz-adv-x="587" 
d="M516 634c-1 -4 -2 -7 -3 -10l-250 -591c-8 -21 -28 -33 -51 -33c-6 0 -14 1 -21 4c-28 13 -41 45 -30 72l216 513h-258c-30 0 -55 26 -55 56c0 31 25 55 55 55h343v0v0v0c3 0 6 0 10 -1c7 -1 14 -5 21 -8l3 -3c2 -1 3 -2 4 -4s3 -3 4 -4c1 -2 2 -3 3 -4s2 -4 2 -5
c1 -2 2 -3 4 -5c0 -1 1 -4 1 -5c1 -2 1 -3 2 -5c1 -7 1 -15 0 -22z" />
    <glyph glyph-name="eight" unicode="8" horiz-adv-x="630" 
d="M426 437c64 -43 107 -116 107 -199c0 -131 -107 -238 -238 -238c-132 0 -240 107 -240 238c0 83 42 156 107 199c-21 27 -33 62 -33 99c0 90 74 164 166 164c90 0 164 -74 164 -164c0 -37 -12 -72 -33 -99zM295 591c-32 0 -57 -25 -57 -55c0 -31 25 -57 57 -57
c30 0 55 26 55 57c0 30 -25 55 -55 55zM295 109c71 0 129 58 129 129s-58 130 -129 130c-72 0 -130 -59 -131 -130c1 -71 59 -129 131 -129z" />
    <glyph glyph-name="nine" unicode="9" horiz-adv-x="642" 
d="M309 216c-134 0 -243 108 -243 242s109 242 243 242c126 0 229 -95 241 -217c0 -1 0 -1 1 -2c1 -19 2 -38 2 -57c0 -67 -10 -139 -35 -205s-66 -129 -129 -171c-42 -28 -93 -45 -150 -47c-31 -1 -56 22 -58 53c-1 30 23 55 54 58c38 1 68 12 94 28c25 17 46 40 63 70
c5 8 9 17 13 26c-29 -13 -62 -20 -96 -20zM309 589c-73 0 -132 -58 -132 -131c0 -72 59 -132 132 -132s131 60 131 132c0 73 -58 131 -131 131z" />
    <glyph glyph-name="exclam" unicode="!" horiz-adv-x="252" 
d="M148 186c-30 0 -55 24 -55 55v404c0 30 25 55 55 55s54 -25 54 -55v-404c0 -31 -24 -55 -54 -55zM202 55c0 -31 -24 -55 -54 -55s-55 24 -55 55v20c0 30 25 55 55 55s54 -25 54 -55v-20z" />
    <glyph glyph-name="question" unicode="?" horiz-adv-x="534" 
d="M232 116c28 0 49 -22 49 -49v-18c0 -28 -21 -49 -49 -49c-26 0 -49 21 -49 49v18c0 27 23 49 49 49zM443 490c0 -99 -69 -182 -162 -204v-65c0 -28 -21 -49 -49 -49c-26 0 -49 21 -49 49v104c0 1 1 1 1 2c-1 1 -1 1 -1 2c0 26 23 49 49 49c63 0 114 50 114 112
c0 63 -51 112 -114 112c-41 0 -77 -22 -96 -55c-14 -24 -44 -32 -68 -18c-23 14 -31 43 -17 67c36 62 104 104 181 104c116 0 211 -94 211 -210z" />
    <glyph glyph-name="less" unicode="&#x3c;" horiz-adv-x="620" 
d="M213 347l237 -239c25 -26 25 -65 0 -90c-13 -12 -28 -18 -44 -18c-17 0 -33 6 -46 18l-281 285c-3 1 -4 3 -5 6c-1 1 -3 2 -3 2c-2 3 -2 5 -3 8c-2 1 -3 3 -3 4c-1 2 -1 5 -2 6c0 3 -2 4 -2 5v7s-1 3 -1 6c0 1 1 4 1 5v7s2 3 2 4c1 3 1 5 2 8c0 1 1 1 1 2c2 3 3 7 5 9
c0 0 0 2 2 2c1 2 3 5 6 7l281 285c25 24 66 24 90 0c25 -25 25 -65 0 -90z" />
    <glyph glyph-name="greater" unicode="&#x3e;" horiz-adv-x="620" 
d="M498 320c-1 -2 -3 -5 -5 -9c0 0 0 -1 -1 -1c-2 -2 -4 -5 -7 -7l-281 -285c-12 -12 -29 -18 -45 -18c-17 0 -32 6 -45 18c-25 25 -25 64 0 90l237 239l-237 239c-25 25 -25 65 0 90c24 24 65 24 90 0l281 -285c3 -2 5 -5 7 -7c1 0 1 -2 1 -2c2 -4 4 -6 5 -9
c0 -1 1 -1 1 -2c1 -3 1 -5 3 -9c0 -1 1 -1 1 -3v-7c0 -1 1 -4 1 -5s-1 -4 -1 -5v-8c0 -1 -1 -1 -1 -2c-2 -4 -2 -7 -3 -9c0 -1 -1 -1 -1 -3z" />
    <glyph glyph-name="equal" unicode="=" horiz-adv-x="620" 
d="M115 259c-20 0 -36 16 -36 36v0c0 20 16 36 36 36v0h186c20 0 35 -16 35 -36v0c0 -20 -15 -36 -35 -36v0h-186v0zM115 372c-20 0 -36 15 -36 35v0c0 19 16 35 36 35v0h186c20 0 35 -16 35 -35v0c0 -20 -15 -35 -35 -35v0h-186v0z" />
    <glyph glyph-name="period" unicode="." horiz-adv-x="230" 
d="M82 67c0 41 33 75 74 75s75 -34 75 -75s-34 -74 -75 -74s-74 33 -74 74z" />
    <glyph glyph-name="comma" unicode="," horiz-adv-x="230" 
d="M54 -117c0 14 10 24 23 27c46 15 70 46 68 90c-29 8 -57 32 -57 68v8c0 38 27 67 68 67c45 0 72 -34 72 -88v-11c0 -68 -18 -114 -49 -146c-27 -26 -66 -43 -94 -43c-21 0 -31 13 -31 28z" />
    <glyph glyph-name="colon" unicode=":" horiz-adv-x="240" 
d="M87 67c0 41 33 75 74 75s75 -34 75 -75s-34 -74 -75 -74s-74 33 -74 74zM87 465c0 41 33 75 74 75s75 -34 75 -75s-34 -74 -75 -74s-74 33 -74 74z" />
    <glyph glyph-name="semicolon" unicode=";" horiz-adv-x="240" 
d="M96 457c0 48 37 85 87 85s87 -37 87 -85v-2c0 -48 -37 -85 -87 -85s-87 37 -87 85v2zM59 -128c0 18 13 29 30 33c51 12 79 47 77 95c-35 9 -70 39 -70 82v2c0 47 33 82 83 82c56 0 89 -43 89 -112v-4c0 -73 -22 -127 -59 -164c-30 -30 -75 -48 -112 -48
c-27 0 -38 16 -38 34z" />
    <glyph glyph-name="semicolon" unicode="&#x37e;" horiz-adv-x="240" 
d="M96 457c0 48 37 85 87 85s87 -37 87 -85v-2c0 -48 -37 -85 -87 -85s-87 37 -87 85v2zM59 -128c0 18 13 29 30 33c51 12 79 47 77 95c-35 9 -70 39 -70 82v2c0 47 33 82 83 82c56 0 89 -43 89 -112v-4c0 -73 -22 -127 -59 -164c-30 -30 -75 -48 -112 -48
c-27 0 -38 16 -38 34z" />
    <glyph glyph-name="quoteright" unicode="&#x2019;" horiz-adv-x="230" 
d="M59 446c0 14 10 23 23 27c46 14 70 45 68 90c-29 7 -57 31 -57 67v8c0 38 27 67 68 67c44 0 72 -34 72 -88v-10c0 -68 -18 -115 -49 -146c-27 -27 -66 -43 -94 -43c-21 0 -31 12 -31 28z" />
    <glyph glyph-name="quoteleft" unicode="&#x2018;" horiz-adv-x="230" 
d="M252 676c0 -14 -10 -23 -24 -27c-46 -14 -70 -45 -68 -89c29 -8 57 -32 57 -68v-8c0 -38 -27 -67 -68 -67c-44 0 -72 34 -72 88v10c0 68 18 115 50 146c26 27 65 43 94 43c21 0 31 -12 31 -28z" />
    <glyph glyph-name="quotedblright" unicode="&#x201d;" horiz-adv-x="522" 
d="M59 446c0 14 10 23 23 27c46 14 70 45 68 90c-29 7 -57 31 -57 67v8c0 38 27 67 68 67c44 0 72 -34 72 -88v-10c0 -68 -18 -115 -49 -146c-27 -27 -66 -43 -94 -43c-21 0 -31 12 -31 28zM290 446c0 14 10 23 24 27c46 14 70 45 68 90c-29 7 -57 31 -57 67v8
c0 38 27 67 68 67c44 0 72 -34 72 -88v-10c0 -68 -18 -115 -50 -146c-26 -27 -65 -43 -94 -43c-21 0 -31 12 -31 28z" />
    <glyph glyph-name="quotedblleft" unicode="&#x201c;" horiz-adv-x="522" 
d="M468 676c0 -14 -10 -23 -24 -27c-46 -14 -70 -45 -68 -89c29 -8 57 -32 57 -68v-8c0 -38 -27 -67 -68 -67c-44 0 -72 34 -72 88v10c0 68 18 115 49 146c27 27 66 43 94 43c21 0 32 -12 32 -28zM236 676c0 -14 -10 -23 -24 -27c-46 -14 -70 -45 -68 -89
c29 -8 57 -32 57 -68v-8c0 -38 -27 -67 -68 -67c-44 0 -72 34 -72 88v10c0 68 18 115 50 146c26 27 65 43 94 43c21 0 31 -12 31 -28z" />
    <glyph glyph-name="slash" unicode="/" horiz-adv-x="422" 
d="M115 4c-29 11 -42 44 -30 72v0l245 583c12 28 44 41 73 29v0c27 -11 40 -44 28 -71v0l-245 -584c-9 -21 -30 -33 -51 -33v0c-6 0 -14 1 -20 4v0z" />
    <glyph glyph-name="backslash" unicode="\" horiz-adv-x="448" 
d="M389 4v0c-6 -3 -14 -4 -20 -4v0c-21 0 -42 12 -51 33l-245 584v0c-12 27 1 60 28 71v0c29 12 61 -1 73 -29l245 -583v0c12 -28 -1 -61 -30 -72z" />
    <glyph glyph-name="space" unicode=" " horiz-adv-x="300" 
 />
    <glyph glyph-name="space" unicode="&#xa0;" horiz-adv-x="300" 
 />
    <glyph glyph-name="hyphen" unicode="-" horiz-adv-x="408" 
d="M125 247c-32 0 -59 27 -59 59c0 33 27 60 59 60h188c32 0 59 -27 59 -60c0 -32 -27 -59 -59 -59h-188z" />
    <glyph glyph-name="quotesingle" unicode="'" horiz-adv-x="230" 
d="M69 433l18 214c2 32 24 56 57 56h39c19 0 34 -12 34 -33c0 -6 -2 -14 -4 -22l-73 -222c-7 -19 -18 -31 -37 -31c-20 0 -35 15 -34 38z" />
    <glyph glyph-name="quotedbl" unicode="&#x22;" horiz-adv-x="410" 
d="M289 433l17 214c2 32 24 56 57 56h40c18 0 32 -12 32 -33c0 -6 -2 -14 -4 -22l-73 -222c-7 -19 -17 -31 -36 -31s-35 15 -33 38zM69 433l18 214c2 32 24 56 57 56h39c19 0 33 -12 33 -33c0 -6 -2 -14 -4 -22l-73 -222c-7 -19 -17 -31 -36 -31c-20 0 -35 15 -34 38z" />
    <glyph glyph-name="numbersign" unicode="#" horiz-adv-x="700" 
d="M125 56l18 105h-46c-29 0 -52 23 -52 52c0 28 23 52 52 52h64l30 174h-58c-28 0 -52 24 -52 52s24 52 52 52h76l20 119c4 26 26 43 52 43c33 0 56 -30 52 -61l-18 -101h157l20 119c4 26 26 43 53 43c32 0 56 -30 51 -61l-17 -101h46c28 0 52 -23 52 -52
c0 -28 -24 -52 -52 -52h-64l-30 -174h57c29 0 52 -23 52 -52c0 -28 -23 -52 -52 -52h-75l-21 -123c-4 -25 -26 -43 -52 -43c-33 0 -57 30 -52 61l19 105h-157l-21 -123c-4 -22 -23 -43 -53 -43c-32 0 -56 27 -51 61zM268 265h156l30 174h-156z" />
    <glyph glyph-name="dollar" unicode="$" horiz-adv-x="632" 
d="M293 720c0 24 20 43 44 43s43 -19 43 -43v-22c59 -7 109 -26 155 -55c16 -9 30 -24 30 -48c0 -31 -25 -55 -56 -55c-10 0 -20 3 -30 9c-35 21 -69 36 -103 44v-192c152 -38 217 -99 217 -206c0 -110 -86 -183 -213 -195v-60c0 -24 -19 -43 -43 -43s-44 19 -44 43v62
c-75 8 -144 35 -205 78c-17 11 -27 27 -27 48c0 31 24 55 55 55c12 0 24 -4 33 -11c47 -34 93 -57 148 -67v197c-146 38 -214 93 -214 206c0 107 85 181 210 191v21zM475 188c0 44 -22 71 -99 95v-182c64 7 99 39 99 87zM201 515c0 -42 19 -68 96 -93v177
c-64 -6 -96 -40 -96 -84z" />
    <glyph glyph-name="percent" horiz-adv-x="824" 
d="M219 350c-98 0 -164 81 -164 177v2c0 98 67 179 166 179s164 -81 164 -177v-2c0 -97 -66 -179 -166 -179zM161 34c0 10 4 19 9 26l459 627c7 12 20 18 34 18c22 0 40 -17 40 -39c0 -10 -4 -19 -9 -26l-459 -627c-8 -12 -21 -18 -35 -18c-22 0 -39 17 -39 39zM642 -8
c-98 0 -164 81 -164 177v2c0 98 67 179 166 179c98 0 164 -81 164 -177v-2c0 -97 -67 -179 -166 -179zM221 427c47 0 75 46 75 100v2c0 56 -32 102 -77 102c-47 0 -75 -46 -75 -100v-2c0 -57 32 -102 77 -102zM644 69c47 0 75 46 75 100v2c0 56 -32 102 -77 102
c-47 0 -75 -46 -75 -100v-2c0 -57 32 -102 77 -102z" />
    <glyph glyph-name="asterisk" unicode="*" horiz-adv-x="430" 
d="M199 414l10 90l-75 -55c-9 -6 -16 -10 -25 -10c-18 0 -33 16 -33 34c0 15 12 26 23 31l88 38l-88 39c-12 5 -23 16 -23 31c0 18 16 33 34 33c9 0 15 -3 24 -10l75 -55l-10 89c-3 21 11 38 31 38s34 -16 31 -37l-10 -90l75 55c9 7 16 10 25 10c18 0 33 -15 33 -33
c0 -16 -11 -26 -23 -31l-88 -39l88 -38c12 -5 23 -16 23 -32c0 -18 -16 -33 -34 -33c-8 0 -15 4 -24 10l-75 55l10 -89c3 -21 -11 -38 -31 -38s-34 16 -31 37z" />
    <glyph glyph-name="bracketleft" unicode="[" horiz-adv-x="430" 
d="M98 -70v710c0 33 26 60 59 60h206c26 0 48 -22 48 -48s-22 -47 -48 -47h-149v-640h149c26 0 48 -21 48 -47s-22 -48 -48 -48h-206c-33 0 -59 27 -59 60z" />
    <glyph glyph-name="bracketright" unicode="]" horiz-adv-x="430" 
d="M368 640v-710c0 -33 -27 -60 -60 -60h-206c-26 0 -47 22 -47 48s21 47 47 47h150v640h-150c-26 0 -47 21 -47 47s21 48 47 48h206c33 0 60 -27 60 -60z" />
    <glyph glyph-name="aring" unicode="&#xe5;" horiz-adv-x="574" 
d="M290 570c-67 0 -128 57 -128 123v2c0 67 61 123 128 123s128 -56 128 -123v-2c0 -66 -61 -123 -128 -123zM290 646c27 0 48 21 48 47v2c0 26 -21 47 -48 47s-48 -21 -48 -47v-2c0 -26 21 -47 48 -47zM527 446v-197v0v0v-196c0 -29 -24 -53 -53 -53c-26 0 -46 19 -52 43
c-38 -27 -83 -43 -133 -43v0c-68 0 -127 28 -170 73c-43 46 -68 108 -68 176c0 69 25 131 68 176c43 46 102 75 170 75c50 0 95 -17 133 -44c6 25 26 44 52 44c29 0 53 -24 53 -54zM382 146c24 26 39 62 39 103c0 42 -15 78 -39 103c-24 27 -58 41 -93 41
c-36 0 -70 -14 -93 -41c-24 -25 -38 -61 -38 -103c0 -41 14 -77 38 -103c23 -25 57 -39 93 -39c35 0 69 14 93 39z" />
    <glyph glyph-name="ae" unicode="&#xe6;" horiz-adv-x="954" 
d="M705 0c-66 0 -124 26 -168 67v-13c0 -30 -25 -54 -54 -54c-27 0 -47 19 -53 44c-39 -28 -85 -44 -136 -44c-69 0 -130 29 -174 75c-43 47 -69 110 -69 179c0 71 26 134 69 180c44 47 105 76 174 76c51 0 97 -17 136 -44c6 25 26 44 53 44c29 0 54 -24 54 -55v-12
c44 41 102 67 168 67c133 0 238 -99 246 -236v-6c0 -2 0 -7 -1 -9c-3 -24 -25 -41 -53 -41h-325c5 -23 17 -50 35 -67c21 -24 62 -43 98 -46c37 -3 81 6 106 26c22 22 63 19 77 3c13 -15 23 -45 0 -67c-50 -46 -110 -67 -183 -67zM389 149c24 27 40 63 40 105
c0 43 -16 80 -40 105c-25 28 -59 42 -95 42c-37 0 -71 -14 -95 -42c-24 -25 -39 -62 -39 -105c0 -42 15 -78 39 -105c24 -25 58 -40 95 -40c36 0 70 15 95 40zM705 413c-87 -4 -130 -66 -138 -108h289c-10 41 -62 101 -151 108z" />
    <glyph glyph-name="sterling" unicode="&#xa3;" horiz-adv-x="644" 
d="M66 43c0 20 11 37 33 44l51 15v176h-32c-29 0 -52 23 -52 52c0 28 23 52 52 52h32v92c0 73 22 134 62 174c39 40 96 62 168 62c92 0 151 -34 195 -81c11 -11 19 -25 19 -44c0 -34 -27 -60 -61 -60c-22 0 -36 10 -44 19c-31 33 -61 52 -107 52c-32 0 -55 -10 -74 -28
c-21 -22 -33 -55 -33 -97v-89h202c28 0 52 -24 52 -52c0 -29 -24 -52 -52 -52h-202v-171h276c30 0 54 -24 54 -54s-24 -53 -54 -53h-438c-28 0 -47 19 -47 43z" />
    <glyph glyph-name="eth" unicode="&#xf0;" horiz-adv-x="628" 
d="M429 445l-104 143l-109 -48c-5 -2 -11 -3 -17 -3c-21 0 -38 17 -38 38c0 18 11 30 27 36l91 40c-7 10 -10 20 -10 32c0 30 24 55 55 55c22 0 37 -11 48 -27l11 -16l87 38c6 2 12 4 17 4c21 0 38 -18 38 -39c0 -18 -11 -30 -26 -36l-72 -31l90 -128
c60 -87 87 -155 87 -244c0 -146 -104 -271 -277 -271c-155 0 -269 117 -269 261c0 141 101 237 232 237c57 0 96 -15 139 -41zM485 247c0 83 -64 150 -157 150c-92 0 -151 -65 -151 -151c0 -83 64 -155 155 -155c93 0 153 70 153 156z" />
    <glyph glyph-name="divide" unicode="&#xf7;" horiz-adv-x="620" 
d="M520 300h-404c-29 0 -52 24 -52 52s23 52 52 52h404c29 0 52 -24 52 -52s-23 -52 -52 -52zM318 629c38 0 69 -30 69 -66v-5c0 -37 -31 -67 -69 -67s-69 30 -69 67v5c0 36 31 66 69 66zM318 213c38 0 69 -30 69 -67v-5c0 -37 -31 -66 -69 -66s-69 29 -69 66v5
c0 37 31 67 69 67z" />
    <glyph glyph-name="oslash" unicode="&#xf8;" horiz-adv-x="640" 
d="M604 494c17 -12 12 -37 -8 -56l-50 -45c24 -40 37 -86 37 -136c0 -71 -25 -134 -71 -180c-42 -48 -104 -77 -172 -77c-62 0 -118 24 -162 64l-34 -30c-18 -15 -40 -21 -55 -19c-5 1 -11 3 -14 5c-17 12 -13 37 8 58l49 43c-24 39 -37 86 -37 136c0 69 26 131 70 179
c45 48 106 77 175 77c62 0 118 -24 160 -64l34 31c23 19 54 25 70 14zM205 257c0 -22 4 -42 11 -60l202 179c-22 17 -49 27 -78 27c-37 0 -71 -16 -96 -41c-24 -27 -39 -63 -39 -105zM475 257c0 23 -4 43 -12 62l-204 -182c23 -17 51 -27 81 -27c36 0 69 15 94 40
c25 28 41 64 41 107z" />
    <glyph glyph-name="trademark" unicode="&#x2122;" horiz-adv-x="690" 
d="M251 677c0 -13 -11 -25 -23 -25h-68v-228c0 -12 -10 -23 -23 -23s-24 11 -24 23v228h-68c-13 0 -23 12 -23 25s10 23 23 23h183c12 0 23 -10 23 -23zM544 700c13 -1 24 -10 24 -23v-253c0 -12 -11 -23 -24 -23c-14 0 -24 11 -24 23v181l-61 -86c-5 -6 -11 -10 -20 -10v0
v0c-8 0 -16 4 -20 10l-62 86v-181c0 -12 -10 -23 -23 -23c-12 0 -23 11 -23 23v253c0 13 11 23 23 23h2c6 0 14 -4 19 -10l84 -118l84 118c6 6 12 10 20 10h1v0v0z" />
    <glyph glyph-name="copyright" unicode="&#xa9;" horiz-adv-x="830" 
d="M414 -12c-203 0 -361 163 -361 360v2c0 197 160 362 363 362s361 -163 361 -360v-2c0 -197 -160 -362 -363 -362zM414 24c185 0 325 147 325 326v2c0 179 -139 324 -323 324c-185 0 -325 -147 -325 -326v-2c0 -179 139 -324 323 -324zM419 159c-110 0 -192 86 -192 194v2
c0 107 81 196 194 196c61 0 98 -17 130 -43c9 -6 16 -17 16 -30c0 -21 -16 -37 -36 -37c-8 0 -16 4 -24 10c-23 18 -52 32 -86 32c-68 0 -118 -57 -118 -127v-2c0 -69 50 -127 118 -127c38 0 65 13 92 36c5 4 12 9 22 9c19 0 35 -16 35 -35c0 -11 -5 -20 -11 -25
c-37 -32 -76 -53 -140 -53z" />
    <glyph glyph-name="registered" unicode="&#xae;" horiz-adv-x="416" 
d="M208 360c-98 0 -174 79 -174 174v1c0 95 77 175 174 175c98 0 174 -79 174 -174v-1c0 -95 -77 -175 -174 -175zM208 379c87 0 154 71 154 156v1c0 85 -66 155 -154 155c-87 0 -154 -71 -154 -156v-1c0 -85 66 -155 154 -155zM275 463c5 -1 9 -5 11 -10
c3 -8 -2 -17 -11 -20c-1 0 -3 -1 -6 -1v0c-3 0 -8 1 -12 3s-7 6 -9 10c-4 9 -6 19 -6 36c-1 5 -2 9 -4 12s-5 6 -9 9c-6 4 -13 6 -16 7h-34v-64c0 -9 -8 -16 -17 -16s-16 7 -16 16v173c0 9 7 16 16 16v0v0h53c34 0 62 -28 62 -63c0 -19 -9 -36 -23 -48c4 -3 8 -6 11 -11
c5 -8 9 -19 9 -31c0 -9 1 -15 1 -18zM215 541c16 0 30 14 30 30c0 17 -14 30 -30 30h-36v-60h36z" />
    <glyph glyph-name="exclamdown" unicode="&#xa1;" horiz-adv-x="252" 
d="M148 514c30 0 54 -24 54 -55v-404c0 -30 -24 -55 -54 -55s-55 25 -55 55v404c0 31 25 55 55 55zM202 645v-20c0 -30 -24 -55 -54 -55s-55 25 -55 55v20c0 31 25 55 55 55s54 -24 54 -55z" />
    <glyph glyph-name="cent" unicode="&#xa2;" horiz-adv-x="581" 
d="M418 183c23 18 56 14 77 -11c16 -22 12 -55 -11 -75c-44 -32 -101 -54 -162 -54c-30 0 -59 5 -85 14l-23 -54c-9 -21 -30 -33 -51 -33c-6 0 -14 1 -20 4c-29 11 -42 44 -30 72l29 69c-49 46 -80 110 -80 182c0 142 118 255 260 256h4l32 76c12 28 44 41 73 29
c27 -11 40 -44 28 -71l-25 -59c18 -9 35 -19 50 -31c23 -18 27 -53 11 -75c-21 -25 -53 -29 -77 -10c-8 6 -17 11 -26 16l-113 -271c13 -4 28 -6 43 -6c36 0 70 13 96 32zM170 297c0 -25 7 -49 19 -70l88 210c-62 -19 -107 -76 -107 -140z" />
    <glyph glyph-name="germandbls" unicode="&#xdf;" horiz-adv-x="620" 
d="M308 47c0 24 17 42 43 48c71 11 116 43 116 104v2c0 57 -48 89 -115 106c-23 7 -44 22 -44 53c0 24 11 40 26 50c52 29 92 68 92 126v2c0 58 -40 96 -101 96c-66 0 -112 -50 -112 -128v-452c0 -33 -27 -59 -61 -59c-33 0 -59 26 -59 59v448c0 145 92 235 238 235
c136 0 216 -83 216 -188v-2c0 -90 -53 -139 -111 -171c78 -26 152 -79 152 -178v-2c0 -130 -112 -197 -225 -199c-34 0 -55 21 -55 50z" />
    <glyph glyph-name="ellipsis" unicode="&#x2026;" horiz-adv-x="680" 
d="M82 67c0 41 33 75 74 75s75 -34 75 -75s-34 -74 -75 -74s-74 33 -74 74zM369 67c0 41 33 75 74 75s75 -34 75 -75s-34 -74 -75 -74s-74 33 -74 74zM656 67c0 41 33 75 74 75s75 -34 75 -75s-34 -74 -75 -74s-74 33 -74 74z" />
    <glyph glyph-name="quotedblbase" unicode="&#x201e;" horiz-adv-x="410" 
d="M54 -117c0 14 10 24 23 27c46 15 70 46 68 90c-29 8 -57 32 -57 68v8c0 38 27 67 68 67c45 0 72 -34 72 -88v-11c0 -68 -18 -114 -49 -146c-27 -26 -66 -43 -94 -43c-21 0 -31 13 -31 28zM285 -117c0 14 10 24 24 27c46 15 70 46 68 90c-29 8 -57 32 -57 68v8
c0 38 27 67 68 67c44 0 72 -35 72 -88v-11c0 -68 -18 -114 -50 -146c-26 -26 -65 -43 -94 -43c-21 0 -31 13 -31 28z" />
    <glyph glyph-name="oe" unicode="&#x153;" horiz-adv-x="1055" 
d="M716 0c-89 0 -164 46 -208 115c-10 -15 -21 -29 -33 -41c-42 -48 -104 -77 -172 -77c-69 0 -130 29 -175 77c-44 46 -70 109 -70 180c0 69 26 131 70 179c45 48 106 77 175 77c68 0 130 -29 172 -77c12 -13 22 -26 31 -41c44 71 120 118 210 118c133 0 238 -99 246 -236
v-6c0 -2 0 -7 -1 -9c-3 -24 -25 -41 -53 -41h-325c5 -23 17 -50 35 -67c21 -24 62 -43 98 -46c37 -3 81 6 106 26c22 22 63 19 77 3c13 -15 23 -45 0 -67c-50 -46 -110 -67 -183 -67zM207 359c-24 -27 -39 -63 -39 -105c0 -43 15 -79 39 -107c25 -25 59 -40 96 -40
c36 0 69 15 94 40c25 28 41 64 41 107c0 42 -16 78 -41 105c-25 25 -58 41 -94 41c-37 0 -71 -16 -96 -41zM716 413c-87 -4 -130 -66 -138 -108h289c-10 41 -62 101 -151 108z" />
    <glyph glyph-name="bullet" unicode="&#x2022;" horiz-adv-x="470" 
d="M253 211c-78 0 -142 62 -142 140v2c0 78 65 141 142 141c76 0 141 -63 141 -141v-2c0 -78 -64 -140 -141 -140z" />
    <glyph glyph-name="endash" unicode="&#x2013;" horiz-adv-x="528" 
d="M123 249c-31 0 -57 26 -57 57c0 32 26 58 57 58h312c31 0 57 -26 57 -58c0 -31 -26 -57 -57 -57h-312z" />
    <glyph glyph-name="tilde" unicode="&#x2dc;" 
d="M175 603c-7 -11 -17 -20 -33 -20c-20 0 -37 16 -37 33c0 6 2 16 4 23c21 58 49 91 102 91c55 0 108 -40 144 -40c23 0 34 10 46 32c7 11 18 20 33 20c20 0 37 -16 37 -33c0 -6 -2 -16 -4 -23c-21 -58 -49 -91 -102 -91c-55 0 -108 40 -144 40c-23 0 -34 -10 -46 -32z" />
    <glyph glyph-name="scaron" unicode="&#x161;" horiz-adv-x="497" 
d="M218 719l52 -45l52 45c27 22 46 27 74 27c16 0 29 -7 29 -20c0 -7 -6 -16 -12 -24l-66 -83c-14 -18 -30 -29 -58 -29h-36c-28 0 -43 11 -58 29l-66 83c-6 8 -12 17 -12 24c0 13 12 20 27 20c28 0 48 -5 74 -27zM76 69c-22 18 -25 52 -7 74v0c18 24 53 27 75 8v0
c26 -22 71 -45 110 -44v0c27 0 52 9 68 19v0c14 12 18 22 18 30v0c0 5 -1 7 -3 10v0c-1 3 -5 7 -13 12v0c-14 10 -44 21 -80 28v0v0v0h-1c-31 6 -61 14 -87 26v0c-27 13 -51 31 -69 58v0c-11 18 -17 40 -17 63v0c0 46 26 85 59 110v0c35 24 77 37 123 37v0
c69 0 118 -33 150 -55v0v0c24 -16 31 -49 16 -74v0c-16 -24 -49 -31 -74 -14v0c-32 21 -60 37 -92 37v0c-25 0 -47 -8 -60 -18v0c-13 -9 -16 -18 -16 -23v0c0 -4 0 -5 2 -8v0c1 -2 4 -6 11 -10v0c13 -9 39 -18 73 -24v0l1 -1h1c33 -6 64 -15 93 -29v0c27 -12 54 -31 71 -59
v0c12 -20 19 -43 19 -66v0c0 -49 -27 -90 -63 -116v0c-36 -25 -81 -40 -130 -40v0c-78 1 -138 37 -178 69v0z" />
    <glyph glyph-name="emdash" unicode="&#x2014;" horiz-adv-x="898" 
d="M123 249c-31 0 -57 26 -57 57c0 32 26 58 57 58h682c31 0 57 -26 57 -58c0 -31 -26 -57 -57 -57h-682z" />
    <glyph glyph-name="guilsinglright" unicode="&#x203a;" horiz-adv-x="311" 
d="M117 486c19 0 33 -10 42 -22l129 -165c9 -12 15 -22 15 -36c0 -13 -6 -23 -15 -35l-126 -162c-10 -14 -27 -24 -45 -24c-28 0 -49 23 -49 50c0 12 6 25 14 34l105 136l-107 140c-9 11 -13 21 -13 34c1 28 22 50 50 50z" />
    <glyph glyph-name="quotesinglbase" unicode="&#x201a;" horiz-adv-x="230" 
d="M54 -117c0 14 10 24 23 27c46 15 70 46 68 90c-29 8 -57 32 -57 68v8c0 38 27 67 68 67c45 0 72 -34 72 -88v-11c0 -68 -18 -114 -49 -146c-27 -26 -66 -43 -94 -43c-21 0 -31 13 -31 28z" />
    <glyph glyph-name="ordfeminine" unicode="&#xaa;" horiz-adv-x="390" 
d="M347 669v-120v0v0v-118c0 -19 -15 -33 -33 -33c-16 0 -28 12 -31 27c-23 -17 -51 -27 -81 -27v0c-41 0 -76 18 -103 46c-26 27 -41 64 -41 105c0 42 15 80 41 107c27 27 62 45 103 45c30 0 58 -10 81 -26c3 15 15 26 31 26c18 0 33 -14 33 -32zM259 486
c14 16 23 39 23 63c0 26 -9 48 -23 63c-15 16 -35 24 -57 24s-42 -8 -56 -24c-15 -15 -23 -37 -23 -63c0 -24 8 -47 23 -63c14 -13 34 -23 56 -23s42 10 57 23zM99 296c-19 0 -34 15 -34 34s15 34 34 34h218c18 0 33 -15 33 -34s-15 -34 -33 -34h-218z" />
    <glyph glyph-name="guillemotleft" unicode="&#xab;" horiz-adv-x="515" 
d="M492 42c-19 0 -33 9 -42 21l-129 166c-9 12 -15 22 -15 35s6 24 15 35l126 163c10 14 27 24 45 24c28 0 49 -23 49 -50c0 -13 -6 -25 -14 -34l-105 -137l107 -140c9 -11 13 -20 13 -33c-1 -28 -22 -50 -50 -50zM240 42c-18 0 -33 9 -42 21l-129 166c-9 12 -14 22 -14 35
s5 24 14 35l126 163c11 14 27 24 46 24c27 0 48 -23 48 -50c0 -13 -6 -25 -13 -34l-106 -137l108 -140c8 -10 12 -21 12 -33c0 -28 -22 -50 -50 -50z" />
    <glyph glyph-name="degree" unicode="&#xb0;" horiz-adv-x="450" 
d="M241 381c-88 0 -167 75 -167 162v2c0 87 79 161 167 161c87 0 166 -74 166 -161v-2c0 -87 -79 -162 -166 -162zM241 447c54 0 94 45 94 96v2c0 51 -40 95 -94 95c-55 0 -95 -44 -95 -95v-2c0 -51 40 -96 95 -96z" />
    <glyph glyph-name="braceleft" unicode="{" horiz-adv-x="480" 
d="M394 -135c-155 34 -196 96 -196 194c0 15 2 55 2 72c0 73 -26 106 -94 108c-32 2 -51 21 -51 48s19 46 51 48c68 3 94 35 94 109c0 17 -2 57 -2 72c0 97 41 159 196 193c31 7 55 -12 55 -41c0 -24 -16 -37 -28 -41c-97 -30 -111 -61 -111 -129c0 -20 2 -53 2 -74
c0 -78 -38 -116 -104 -137c67 -22 104 -59 104 -137c0 -21 -2 -54 -2 -74c0 -68 14 -99 111 -129c12 -4 28 -17 28 -41c0 -29 -24 -48 -55 -41z" />
    <glyph glyph-name="braceright" unicode="}" horiz-adv-x="480" 
d="M108 709c155 -34 196 -96 196 -193c0 -15 -2 -55 -2 -72c0 -74 27 -106 95 -109c31 -2 50 -21 50 -48s-19 -46 -50 -48c-68 -2 -95 -35 -95 -108c0 -17 2 -57 2 -72c0 -98 -41 -160 -196 -194c-31 -7 -55 12 -55 41c0 24 16 37 29 41c96 30 110 61 110 129
c0 20 -2 53 -2 74c0 78 38 116 104 137c-67 22 -104 59 -104 137c0 21 2 54 2 74c0 68 -14 99 -110 129c-13 4 -29 17 -29 41c0 29 24 48 55 41z" />
    <glyph glyph-name="asciitilde" unicode="~" horiz-adv-x="460" 
d="M154 247c-6 -11 -17 -20 -32 -20c-20 0 -37 16 -37 34c0 5 1 16 4 22c21 58 48 91 102 91c55 0 108 -39 143 -39c24 0 35 9 47 31c6 11 17 21 32 21c20 0 37 -17 37 -34c0 -6 -1 -16 -4 -23c-21 -58 -48 -91 -102 -91c-55 0 -108 40 -143 40c-24 0 -35 -10 -47 -32z" />
    <glyph glyph-name="bar" unicode="|" horiz-adv-x="286" 
d="M121 -85v840c0 27 22 48 48 48c27 0 49 -21 49 -48v-840c0 -27 -22 -48 -49 -48c-26 0 -48 21 -48 48z" />
    <glyph glyph-name="florin" unicode="&#x192;" horiz-adv-x="506" 
d="M121 -7c-41 0 -65 20 -65 51c0 27 20 48 50 50c36 3 55 23 63 67l35 195h-34c-28 0 -51 22 -51 50s23 51 51 51h51l18 94c19 101 67 155 175 155c19 0 35 -1 52 -3c24 -3 45 -23 45 -51s-22 -50 -50 -50c-4 0 -14 2 -24 2c-47 0 -71 -23 -81 -78l-12 -69h81
c29 0 51 -23 51 -51s-22 -50 -51 -50h-99l-38 -213c-19 -107 -75 -150 -167 -150z" />
    <glyph glyph-name="thorn" unicode="&#xfe;" horiz-adv-x="660" 
 />
    <glyph glyph-name="questiondown" unicode="&#xbf;" horiz-adv-x="534" 
d="M247 584c-26 0 -49 22 -49 49v18c0 28 23 49 49 49c28 0 49 -21 49 -49v-18c0 -27 -21 -49 -49 -49zM458 210c0 -116 -95 -210 -211 -210c-77 0 -145 42 -181 104c-14 24 -6 53 17 67c24 14 54 6 68 -18c19 -33 55 -55 96 -55c63 0 114 49 114 112c0 62 -51 112 -114 112
c-26 0 -49 23 -49 49c0 1 0 1 1 2c0 1 -1 1 -1 2v104c0 28 23 49 49 49c28 0 49 -21 49 -49v-65c93 -22 162 -105 162 -204z" />
    <glyph glyph-name="Atilde" unicode="&#xc3;" horiz-adv-x="664" 
d="M511 35l-49 130h-243l-49 -130c-9 -22 -30 -35 -52 -35c-7 0 -13 1 -19 3c-29 11 -43 43 -33 72l221 589c9 22 31 36 53 35c23 1 44 -13 53 -35l221 -589c10 -29 -4 -61 -33 -72c-5 -2 -12 -3 -19 -3c-22 0 -43 13 -51 35zM259 275h162l-81 215zM228 803
c-7 -11 -17 -20 -33 -20c-20 0 -37 16 -37 33c0 6 2 16 4 23c21 58 49 91 102 91c55 0 108 -40 144 -40c23 0 34 10 46 32c7 11 18 20 33 20c20 0 37 -16 37 -33c0 -6 -2 -16 -4 -23c-21 -58 -49 -91 -102 -91c-55 0 -108 40 -144 40c-23 0 -34 -10 -46 -32z" />
    <glyph glyph-name="AE" unicode="&#xc6;" horiz-adv-x="1045" 
d="M35 45c0 12 4 26 10 35l337 577c15 27 37 43 72 43h481c30 0 55 -25 55 -55c0 -31 -25 -55 -55 -55h-324v-182h279c30 0 55 -25 55 -56c0 -30 -25 -54 -55 -54h-279v-188h329c30 0 55 -25 55 -55c0 -31 -25 -55 -55 -55h-390c-35 0 -62 27 -62 62v107h-264l-81 -141
c-13 -22 -30 -34 -54 -34c-30 0 -54 22 -54 51zM287 278h201v315h-20z" />
    <glyph glyph-name="section" unicode="&#xa7;" horiz-adv-x="632" 
 />
    <glyph glyph-name="Eth" unicode="&#xd0;" horiz-adv-x="812" 
d="M114 293c-32 0 -59 27 -59 59c0 33 27 60 59 60h37v233c0 31 24 55 55 55h118c193 0 349 -157 349 -349c0 -194 -156 -351 -349 -351h-118c-31 0 -55 25 -55 55v238h-37zM262 589v-177h40c32 0 59 -27 59 -60c0 -32 -27 -59 -59 -59h-40v-182h62c132 1 238 107 238 240
c0 131 -106 238 -238 238h-62z" />
    <glyph glyph-name="multiply" unicode="&#xd7;" horiz-adv-x="620" 
d="M524 481l-130 -128l131 -128c10 -10 17 -23 17 -40c0 -30 -24 -54 -54 -54c-17 0 -30 7 -40 16l-128 132l-129 -131c-10 -11 -23 -17 -39 -17c-29 0 -52 23 -52 52c0 16 7 30 18 40l130 128l-132 128c-9 10 -16 23 -16 40c0 30 24 54 54 54c17 0 30 -7 40 -17l128 -131
l129 131c10 11 23 17 38 17c30 0 53 -23 53 -53c0 -15 -7 -29 -18 -39z" />
    <glyph glyph-name="Oslash" unicode="&#xd8;" horiz-adv-x="850" 
d="M438 -12c-85 0 -159 25 -218 67l-48 -48c-9 -10 -22 -17 -38 -17c-25 0 -43 18 -43 40c0 15 8 28 17 37l47 49c-52 63 -82 144 -82 232v2c0 197 152 362 367 362c84 0 159 -25 218 -68l48 49c10 10 23 17 38 17c25 0 43 -18 43 -39c0 -16 -8 -29 -17 -38l-47 -49
c52 -63 82 -144 82 -232v-2c0 -197 -152 -362 -367 -362zM200 350c0 -53 15 -102 42 -143l334 349c-38 28 -85 45 -138 45c-139 0 -238 -112 -238 -249v-2zM440 99c139 0 238 112 238 249v2c0 53 -16 102 -42 143l-335 -350c39 -28 86 -44 139 -44z" />
    <glyph glyph-name="asciicircum" unicode="^" 
d="M252 625l-72 -93c-27 -35 -43 -44 -72 -44c-16 0 -28 8 -28 20c0 9 4 19 12 30l95 130c16 23 33 36 61 36h9c28 0 45 -13 62 -36l95 -130c7 -11 11 -21 11 -30c0 -12 -12 -20 -28 -20c-30 0 -46 9 -73 44z" />
    <glyph glyph-name="underscore" unicode="_" horiz-adv-x="600" 
d="M23 -160c-26 0 -47 21 -47 47s21 47 47 47h604c26 0 47 -21 47 -47s-21 -47 -47 -47h-604z" />
    <glyph glyph-name="cedilla" unicode="&#xb8;" 
d="M340 10l-61 -141c-8 -19 -18 -29 -39 -29c-24 0 -70 23 -70 44c0 8 3 16 8 23l71 103h91z" />
    <glyph glyph-name="circumflex" unicode="&#x2c6;" 
d="M294 662l-52 -45c-26 -22 -46 -27 -74 -27c-15 0 -27 7 -27 20c0 7 6 16 12 24l66 83c15 18 30 29 58 29h36c28 0 44 -11 58 -29l66 -83c6 -8 12 -17 12 -24c0 -13 -13 -20 -29 -20c-28 0 -47 5 -74 27z" />
    <glyph glyph-name="Scaron" unicode="&#x160;" horiz-adv-x="640" 
d="M292 911l52 -45l52 45c27 22 46 27 74 27c16 0 29 -7 29 -20c0 -7 -6 -16 -12 -24l-66 -83c-14 -18 -30 -29 -58 -29h-36c-28 0 -43 11 -58 29l-66 83c-6 8 -12 17 -12 24c0 13 12 20 27 20c28 0 48 -5 74 -27zM90 101c-22 18 -25 51 -8 73v0c18 22 51 25 73 7v0
c44 -36 120 -78 191 -77v0c50 0 95 15 125 37v0c30 22 43 47 43 72v0c0 13 -3 22 -9 32v0c-6 10 -15 20 -30 30v0c-29 19 -78 36 -137 47v0h-2v0c-47 9 -91 21 -129 39v0c-38 18 -71 43 -93 78v0c-15 24 -23 52 -23 82v0c0 60 34 112 80 146v0c47 34 108 53 173 53v0
c96 0 167 -47 218 -80v0c23 -16 30 -48 14 -71v0c-15 -24 -47 -31 -71 -15v0c-51 34 -100 64 -161 64v0c-45 0 -85 -14 -112 -34v0c-27 -20 -38 -42 -38 -63v0c0 -12 2 -20 7 -28v0c5 -8 14 -17 27 -26v0c26 -18 71 -34 125 -44v0h2v0c51 -10 98 -23 138 -42v0
c41 -20 77 -46 100 -83v0c15 -24 24 -54 24 -85v0c0 -64 -36 -119 -86 -155v0c-49 -36 -114 -57 -185 -57v0c-108 1 -199 55 -256 100v0z" />
    <glyph glyph-name="yen" unicode="&#xa5;" horiz-adv-x="686" 
d="M405 264v-73h154c24 0 44 -20 44 -45c0 -24 -20 -44 -44 -44h-154v-48c0 -33 -26 -59 -59 -59s-59 26 -59 59v48h-154c-24 0 -44 20 -44 44c0 25 20 45 44 45h154v73h-154c-24 0 -44 20 -44 44c0 25 20 45 44 45h119l-184 252c-10 14 -15 27 -15 42c0 31 26 58 61 58
c26 0 44 -13 58 -34l175 -261l177 260c12 18 30 35 56 35c32 0 59 -22 59 -57c0 -17 -6 -31 -15 -43l-186 -252h121c24 0 44 -20 44 -45c0 -24 -20 -44 -44 -44h-154z" />
    <glyph glyph-name="guillemotright" unicode="&#xbb;" horiz-adv-x="515" 
d="M504 42c-19 0 -33 9 -42 21l-129 166c-9 12 -15 22 -15 35s6 24 15 35l126 163c10 14 27 24 45 24c28 0 49 -23 49 -50c0 -13 -6 -25 -14 -34l-105 -137l107 -140c9 -11 13 -20 13 -33c-1 -28 -22 -50 -50 -50zM252 42c-18 0 -33 9 -42 21l-129 166c-9 12 -14 22 -14 35
s5 24 14 35l126 163c11 14 27 24 46 24c27 0 48 -23 48 -50c0 -13 -6 -25 -13 -34l-106 -137l108 -140c8 -10 12 -21 12 -33c0 -28 -22 -50 -50 -50z" />
    <glyph glyph-name="dieresis" unicode="&#xa8;" 
d="M133 636c0 36 28 65 64 65s65 -29 65 -65s-29 -64 -65 -64s-64 28 -64 64zM333 636c0 36 28 65 64 65s65 -29 65 -65s-29 -64 -65 -64s-64 28 -64 64z" />
    <glyph glyph-name="guilsinglleft" unicode="&#x2039;" horiz-adv-x="311" 
d="M241 486c28 0 49 -22 50 -50c0 -13 -4 -23 -13 -34l-107 -140l105 -136c8 -9 14 -22 14 -34c0 -27 -21 -50 -49 -50c-18 0 -35 10 -45 24l-126 162c-9 12 -15 22 -15 35c0 14 6 24 15 36l129 165c9 12 23 22 42 22z" />
    <glyph glyph-name="Ydieresis" unicode="&#x178;" horiz-adv-x="716" 
d="M579 682c24 -18 29 -52 12 -76l-205 -281v-270c0 -31 -24 -55 -55 -55c-29 0 -55 24 -55 55v270l-203 281c-19 24 -14 58 11 76s59 13 76 -12l171 -234l171 234c19 25 53 30 77 12zM166 836c0 36 28 65 64 65s65 -29 65 -65s-29 -64 -65 -64s-64 28 -64 64zM366 836
c0 36 28 65 64 65s65 -29 65 -65s-29 -64 -65 -64s-64 28 -64 64z" />
    <glyph glyph-name="acute" unicode="&#xb4;" 
d="M231 590c-17 0 -30 8 -30 21c0 7 4 16 8 22l57 88c11 18 27 29 48 29c32 0 72 -20 72 -39c0 -11 -7 -21 -17 -30l-67 -64c-24 -22 -43 -27 -71 -27z" />
    <glyph glyph-name="grave" unicode="`" 
d="M318 590c-28 0 -47 5 -70 27l-68 64c-10 9 -17 19 -17 30c0 19 40 39 72 39c21 0 37 -11 48 -29l57 -88c4 -6 9 -15 9 -22c0 -13 -13 -21 -31 -21z" />
    <glyph glyph-name="Aacute" unicode="&#xc1;" horiz-adv-x="646" 
d="M510 35l-49 130h-243l-49 -130c-9 -22 -30 -35 -52 -35c-7 0 -13 1 -19 3c-29 11 -43 43 -33 72l221 589c9 22 31 36 53 35c23 1 44 -13 53 -35l221 -589c10 -29 -4 -61 -33 -72c-5 -2 -12 -3 -19 -3c-22 0 -43 13 -51 35zM258 275h162l-81 215zM279 790
c-17 0 -30 8 -30 21c0 7 4 16 8 22l57 88c11 18 27 29 48 29c32 0 72 -20 72 -39c0 -11 -7 -21 -17 -30l-67 -64c-24 -22 -43 -27 -71 -27z" />
    <glyph glyph-name="Agrave" unicode="&#xc0;" horiz-adv-x="649" 
d="M510 35l-49 130h-243l-49 -130c-9 -22 -30 -35 -52 -35c-7 0 -13 1 -19 3c-29 11 -43 43 -33 72l221 589c9 22 31 36 53 35c23 1 44 -13 53 -35l221 -589c10 -29 -4 -61 -33 -72c-5 -2 -12 -3 -19 -3c-22 0 -43 13 -51 35zM258 275h162l-81 215zM400 790
c-28 0 -47 5 -70 27l-68 64c-10 9 -17 19 -17 30c0 19 40 39 72 39c21 0 37 -11 48 -29l57 -88c4 -6 9 -15 9 -22c0 -13 -13 -21 -31 -21z" />
    <glyph glyph-name="Acircumflex" unicode="&#xc2;" horiz-adv-x="664" 
d="M511 35l-49 130h-243l-49 -130c-9 -22 -30 -35 -52 -35c-7 0 -13 1 -19 3c-29 11 -43 43 -33 72l221 589c9 22 31 36 53 35c23 1 44 -13 53 -35l221 -589c10 -29 -4 -61 -33 -72c-5 -2 -12 -3 -19 -3c-22 0 -43 13 -51 35zM259 275h162l-81 215zM339 862l-52 -45
c-26 -22 -46 -27 -74 -27c-15 0 -27 7 -27 20c0 7 6 16 12 24l66 83c15 18 30 29 58 29h36c28 0 44 -11 58 -29l66 -83c6 -8 12 -17 12 -24c0 -13 -13 -20 -29 -20c-28 0 -47 5 -74 27z" />
    <glyph glyph-name="Adieresis" unicode="&#xc4;" horiz-adv-x="663" 
d="M511 35l-49 130h-243l-49 -130c-9 -22 -30 -35 -52 -35c-7 0 -13 1 -19 3c-29 11 -43 43 -33 72l221 589c9 22 31 36 53 35c23 1 44 -13 53 -35l221 -589c10 -29 -4 -61 -33 -72c-5 -2 -12 -3 -19 -3c-22 0 -43 13 -51 35zM259 275h162l-81 215zM177 836
c0 36 28 65 64 65s65 -29 65 -65s-29 -64 -65 -64s-64 28 -64 64zM377 836c0 36 28 65 64 65s65 -29 65 -65s-29 -64 -65 -64s-64 28 -64 64z" />
    <glyph glyph-name="Egrave" unicode="&#xc8;" horiz-adv-x="593" 
d="M159 0c-31 0 -55 25 -55 55v590c0 31 24 55 55 55h1h2h324c29 0 55 -24 55 -55s-26 -56 -55 -56h-271v-183h233c30 0 55 -26 55 -55c0 -31 -25 -56 -55 -56h-233v-184h271c29 0 55 -25 55 -56c0 -30 -26 -55 -55 -55h-324c-2 0 -2 1 -2 1zM387 790c-28 0 -47 5 -70 27
l-68 64c-10 9 -17 19 -17 30c0 19 40 39 72 39c21 0 37 -11 48 -29l57 -88c4 -6 9 -15 9 -22c0 -13 -13 -21 -31 -21z" />
    <glyph glyph-name="Eacute" unicode="&#xc9;" horiz-adv-x="593" 
d="M159 0c-31 0 -55 25 -55 55v590c0 31 24 55 55 55h1h2h324c29 0 55 -24 55 -55s-26 -56 -55 -56h-271v-183h233c30 0 55 -26 55 -55c0 -31 -25 -56 -55 -56h-233v-184h271c29 0 55 -25 55 -56c0 -30 -26 -55 -55 -55h-324c-2 0 -2 1 -2 1zM262 790c-17 0 -30 8 -30 21
c0 7 4 16 8 22l57 88c11 18 27 29 48 29c32 0 72 -20 72 -39c0 -11 -7 -21 -17 -30l-67 -64c-24 -22 -43 -27 -71 -27z" />
    <glyph glyph-name="Ecircumflex" unicode="&#xca;" horiz-adv-x="593" 
d="M159 0c-31 0 -55 25 -55 55v590c0 31 24 55 55 55h1h2h324c29 0 55 -24 55 -55s-26 -56 -55 -56h-271v-183h233c30 0 55 -26 55 -55c0 -31 -25 -56 -55 -56h-233v-184h271c29 0 55 -25 55 -56c0 -30 -26 -55 -55 -55h-324c-2 0 -2 1 -2 1zM322 862l-52 -45
c-26 -22 -46 -27 -74 -27c-15 0 -27 7 -27 20c0 7 6 16 12 24l66 83c15 18 30 29 58 29h36c28 0 44 -11 58 -29l66 -83c6 -8 12 -17 12 -24c0 -13 -13 -20 -29 -20c-28 0 -47 5 -74 27z" />
    <glyph glyph-name="Edieresis" unicode="&#xcb;" horiz-adv-x="670" 
d="M159 0c-31 0 -55 25 -55 55v590c0 31 24 55 55 55h1h2h324c29 0 55 -24 55 -55s-26 -56 -55 -56h-271v-183h233c30 0 55 -26 55 -55c0 -31 -25 -56 -55 -56h-233v-184h271c29 0 55 -25 55 -56c0 -30 -26 -55 -55 -55h-324c-2 0 -2 1 -2 1zM159 836c0 36 28 65 64 65
s65 -29 65 -65s-29 -64 -65 -64s-64 28 -64 64zM359 836c0 36 28 65 64 65s65 -29 65 -65s-29 -64 -65 -64s-64 28 -64 64z" />
    <glyph glyph-name="Igrave" unicode="&#xcc;" horiz-adv-x="348" 
d="M161 55v0c0 -31 24 -55 55 -55v0c30 0 56 24 56 55v590v0c0 31 -26 55 -56 55v0c-31 0 -55 -24 -55 -55v-590zM278 790c-28 0 -47 5 -70 27l-68 64c-10 9 -17 19 -17 30c0 19 40 39 72 39c21 0 37 -11 48 -29l57 -88c4 -6 9 -15 9 -22c0 -13 -13 -21 -31 -21z" />
    <glyph glyph-name="Iacute" unicode="&#xcd;" horiz-adv-x="274" 
d="M83 55v0c0 -31 24 -55 55 -55v0c30 0 56 24 56 55v590v0c0 31 -26 55 -56 55v0c-31 0 -55 -24 -55 -55v-590zM77 790c-17 0 -30 8 -30 21c0 7 4 16 8 22l57 88c11 18 27 29 48 29c32 0 72 -20 72 -39c0 -11 -7 -21 -17 -30l-67 -64c-24 -22 -43 -27 -71 -27z" />
    <glyph glyph-name="Icircumflex" unicode="&#xce;" horiz-adv-x="274" 
d="M102 55v0c0 -31 24 -55 55 -55v0c30 0 56 24 56 55v590v0c0 31 -26 55 -56 55v0c-31 0 -55 -24 -55 -55v-590zM155 862l-52 -45c-26 -22 -46 -27 -74 -27c-15 0 -27 7 -27 20c0 7 6 16 12 24l66 83c15 18 30 29 58 29h36c28 0 44 -11 58 -29l66 -83c6 -8 12 -17 12 -24
c0 -13 -13 -20 -29 -20c-28 0 -47 5 -74 27z" />
    <glyph glyph-name="Idieresis" unicode="&#xcf;" horiz-adv-x="274" 
d="M102 55v0c0 -31 24 -55 55 -55v0c30 0 56 24 56 55v590v0c0 31 -26 55 -56 55v0c-31 0 -55 -24 -55 -55v-590zM-8 836c0 36 28 65 64 65s65 -29 65 -65s-29 -64 -65 -64s-64 28 -64 64zM192 836c0 36 28 65 64 65s65 -29 65 -65s-29 -64 -65 -64s-64 28 -64 64z" />
    <glyph glyph-name="Ntilde" unicode="&#xd1;" horiz-adv-x="790" 
d="M214 470v-415c0 -30 -25 -55 -54 -55c-31 0 -55 25 -55 55v581v1c-1 17 7 35 22 46c25 17 59 12 76 -12l323 -447v412c0 29 24 54 54 54s55 -25 55 -54v-581c0 -30 -25 -55 -55 -55c-16 0 -31 8 -41 20c-2 2 -4 4 -5 6zM257 803c-7 -11 -17 -20 -33 -20
c-20 0 -37 16 -37 33c0 6 2 16 4 23c21 58 49 91 102 91c55 0 108 -40 144 -40c23 0 34 10 46 32c7 11 18 20 33 20c20 0 37 -16 37 -33c0 -6 -2 -16 -4 -23c-21 -58 -49 -91 -102 -91c-55 0 -108 40 -144 40c-23 0 -34 -10 -46 -32z" />
    <glyph glyph-name="Ograve" unicode="&#xd2;" horiz-adv-x="850" 
d="M417 720c92 0 180 -41 239 -107c62 -66 101 -154 101 -253s-39 -188 -101 -253c-59 -65 -147 -107 -239 -107v0c-96 0 -184 42 -245 107c-62 65 -99 154 -99 253s37 187 99 253c61 66 149 107 245 107zM575 186c41 43 68 106 68 174s-27 131 -68 175
c-42 45 -98 71 -158 71c-64 0 -120 -26 -162 -71c-42 -44 -68 -107 -68 -175s26 -131 68 -174c42 -45 98 -72 162 -72c60 0 116 27 158 72zM480 790c-28 0 -47 5 -70 27l-68 64c-10 9 -17 19 -17 30c0 19 40 39 72 39c21 0 37 -11 48 -29l57 -88c4 -6 9 -15 9 -22
c0 -13 -13 -21 -31 -21z" />
    <glyph glyph-name="Oacute" unicode="&#xd3;" horiz-adv-x="850" 
d="M417 720c92 0 180 -41 239 -107c62 -66 101 -154 101 -253s-39 -188 -101 -253c-59 -65 -147 -107 -239 -107v0c-96 0 -184 42 -245 107c-62 65 -99 154 -99 253s37 187 99 253c61 66 149 107 245 107zM575 186c41 43 68 106 68 174s-27 131 -68 175
c-42 45 -98 71 -158 71c-64 0 -120 -26 -162 -71c-42 -44 -68 -107 -68 -175s26 -131 68 -174c42 -45 98 -72 162 -72c60 0 116 27 158 72zM356 790c-17 0 -30 8 -30 21c0 7 4 16 8 22l57 88c11 18 27 29 48 29c32 0 72 -20 72 -39c0 -11 -7 -21 -17 -30l-67 -64
c-24 -22 -43 -27 -71 -27z" />
    <glyph glyph-name="Ocircumflex" unicode="&#xd4;" horiz-adv-x="850" 
d="M417 720c92 0 180 -41 239 -107c62 -66 101 -154 101 -253s-39 -188 -101 -253c-59 -65 -147 -107 -239 -107v0c-96 0 -184 42 -245 107c-62 65 -99 154 -99 253s37 187 99 253c61 66 149 107 245 107zM575 186c41 43 68 106 68 174s-27 131 -68 175
c-42 45 -98 71 -158 71c-64 0 -120 -26 -162 -71c-42 -44 -68 -107 -68 -175s26 -131 68 -174c42 -45 98 -72 162 -72c60 0 116 27 158 72zM414 862l-52 -45c-26 -22 -46 -27 -74 -27c-15 0 -27 7 -27 20c0 7 6 16 12 24l66 83c15 18 30 29 58 29h36c28 0 44 -11 58 -29
l66 -83c6 -8 12 -17 12 -24c0 -13 -13 -20 -29 -20c-28 0 -47 5 -74 27z" />
    <glyph glyph-name="Otilde" unicode="&#xd5;" horiz-adv-x="850" 
d="M417 720c92 0 180 -41 239 -107c62 -66 101 -154 101 -253s-39 -188 -101 -253c-59 -65 -147 -107 -239 -107v0c-96 0 -184 42 -245 107c-62 65 -99 154 -99 253s37 187 99 253c61 66 149 107 245 107zM575 186c41 43 68 106 68 174s-27 131 -68 175
c-42 45 -98 71 -158 71c-64 0 -120 -26 -162 -71c-42 -44 -68 -107 -68 -175s26 -131 68 -174c42 -45 98 -72 162 -72c60 0 116 27 158 72zM303 803c-7 -11 -17 -20 -33 -20c-20 0 -37 16 -37 33c0 6 2 16 4 23c21 58 49 91 102 91c55 0 108 -40 144 -40c23 0 34 10 46 32
c7 11 18 20 33 20c20 0 37 -16 37 -33c0 -6 -2 -16 -4 -23c-21 -58 -49 -91 -102 -91c-55 0 -108 40 -144 40c-23 0 -34 -10 -46 -32z" />
    <glyph glyph-name="Odieresis" unicode="&#xd6;" horiz-adv-x="850" 
d="M417 720c92 0 180 -41 239 -107c62 -66 101 -154 101 -253s-39 -188 -101 -253c-59 -65 -147 -107 -239 -107v0c-96 0 -184 42 -245 107c-62 65 -99 154 -99 253s37 187 99 253c61 66 149 107 245 107zM575 186c41 43 68 106 68 174s-27 131 -68 175
c-42 45 -98 71 -158 71c-64 0 -120 -26 -162 -71c-42 -44 -68 -107 -68 -175s26 -131 68 -174c42 -45 98 -72 162 -72c60 0 116 27 158 72zM251 836c0 36 28 65 64 65s65 -29 65 -65s-29 -64 -65 -64s-64 28 -64 64zM451 836c0 36 28 65 64 65s65 -29 65 -65
s-29 -64 -65 -64s-64 28 -64 64z" />
    <glyph glyph-name="Ugrave" unicode="&#xd9;" horiz-adv-x="760" 
d="M671 289c0 -159 -129 -289 -289 -289c-161 0 -289 130 -289 289v356c0 31 24 55 55 55c30 0 56 -24 56 -55v-356c0 -98 80 -178 178 -178c99 0 178 80 178 178v356c0 31 25 55 56 55s55 -24 55 -55v-356zM444 790c-28 0 -47 5 -70 27l-68 64c-10 9 -17 19 -17 30
c0 19 40 39 72 39c21 0 37 -11 48 -29l57 -88c4 -6 9 -15 9 -22c0 -13 -13 -21 -31 -21z" />
    <glyph glyph-name="Uacute" unicode="&#xda;" horiz-adv-x="760" 
d="M671 289c0 -159 -129 -289 -289 -289c-161 0 -289 130 -289 289v356c0 31 24 55 55 55c30 0 56 -24 56 -55v-356c0 -98 80 -178 178 -178c99 0 178 80 178 178v356c0 31 25 55 56 55s55 -24 55 -55v-356zM320 790c-17 0 -30 8 -30 21c0 7 4 16 8 22l57 88
c11 18 27 29 48 29c32 0 72 -20 72 -39c0 -11 -7 -21 -17 -30l-67 -64c-24 -22 -43 -27 -71 -27z" />
    <glyph glyph-name="Ucircumflex" unicode="&#xdb;" horiz-adv-x="760" 
d="M671 289c0 -159 -129 -289 -289 -289c-161 0 -289 130 -289 289v356c0 31 24 55 55 55c30 0 56 -24 56 -55v-356c0 -98 80 -178 178 -178c99 0 178 80 178 178v356c0 31 25 55 56 55s55 -24 55 -55v-356zM380 862l-52 -45c-26 -22 -46 -27 -74 -27c-15 0 -27 7 -27 20
c0 7 6 16 12 24l66 83c15 18 30 29 58 29h36c28 0 44 -11 58 -29l66 -83c6 -8 12 -17 12 -24c0 -13 -13 -20 -29 -20c-28 0 -47 5 -74 27z" />
    <glyph glyph-name="Udieresis" unicode="&#xdc;" horiz-adv-x="760" 
d="M671 289c0 -159 -129 -289 -289 -289c-161 0 -289 130 -289 289v356c0 31 24 55 55 55c30 0 56 -24 56 -55v-356c0 -98 80 -178 178 -178c99 0 178 80 178 178v356c0 31 25 55 56 55s55 -24 55 -55v-356zM216 836c0 36 28 65 64 65s65 -29 65 -65s-29 -64 -65 -64
s-64 28 -64 64zM416 836c0 36 28 65 64 65s65 -29 65 -65s-29 -64 -65 -64s-64 28 -64 64z" />
    <glyph glyph-name="Yacute" unicode="&#xdd;" horiz-adv-x="716" 
d="M579 682c24 -18 29 -52 12 -76l-205 -281v-270c0 -31 -24 -55 -55 -55c-29 0 -55 24 -55 55v270l-203 281c-19 24 -14 58 11 76s59 13 76 -12l171 -234l171 234c19 25 53 30 77 12zM303 790c-17 0 -30 8 -30 21c0 7 4 16 8 22l57 88c11 18 27 29 48 29
c32 0 72 -20 72 -39c0 -11 -7 -21 -17 -30l-67 -64c-24 -22 -43 -27 -71 -27z" />
    <glyph glyph-name="agrave" unicode="&#xe0;" horiz-adv-x="574" 
d="M539 446v-197v0v0v-196c0 -29 -24 -53 -53 -53c-26 0 -46 19 -52 43c-38 -27 -83 -43 -133 -43v0c-68 0 -127 28 -170 73c-43 46 -68 108 -68 176c0 69 25 131 68 176c43 46 102 75 170 75c50 0 95 -17 133 -44c6 25 26 44 52 44c29 0 53 -24 53 -54zM394 146
c24 26 39 62 39 103c0 42 -15 78 -39 103c-24 27 -58 41 -93 41c-36 0 -70 -14 -93 -41c-24 -25 -38 -61 -38 -103c0 -41 14 -77 38 -103c23 -25 57 -39 93 -39c35 0 69 14 93 39zM387 570c-28 0 -47 5 -70 27l-68 64c-10 9 -17 19 -17 30c0 19 40 39 72 39
c21 0 37 -11 48 -29l57 -88c4 -6 9 -15 9 -22c0 -13 -13 -21 -31 -21z" />
    <glyph glyph-name="aacute" unicode="&#xe1;" horiz-adv-x="574" 
d="M539 446v-197v0v0v-196c0 -29 -24 -53 -53 -53c-26 0 -46 19 -52 43c-38 -27 -83 -43 -133 -43v0c-68 0 -127 28 -170 73c-43 46 -68 108 -68 176c0 69 25 131 68 176c43 46 102 75 170 75c50 0 95 -17 133 -44c6 25 26 44 52 44c29 0 53 -24 53 -54zM394 146
c24 26 39 62 39 103c0 42 -15 78 -39 103c-24 27 -58 41 -93 41c-36 0 -70 -14 -93 -41c-24 -25 -38 -61 -38 -103c0 -41 14 -77 38 -103c23 -25 57 -39 93 -39c35 0 69 14 93 39zM353 570c-17 0 -30 8 -30 21c0 7 4 16 8 22l57 88c11 18 27 29 48 29c32 0 72 -20 72 -39
c0 -11 -7 -21 -17 -30l-67 -64c-24 -22 -43 -27 -71 -27z" />
    <glyph glyph-name="acircumflex" unicode="&#xe2;" horiz-adv-x="574" 
d="M539 446v-197v0v0v-196c0 -29 -24 -53 -53 -53c-26 0 -46 19 -52 43c-38 -27 -83 -43 -133 -43v0c-68 0 -127 28 -170 73c-43 46 -68 108 -68 176c0 69 25 131 68 176c43 46 102 75 170 75c50 0 95 -17 133 -44c6 25 26 44 52 44c29 0 53 -24 53 -54zM394 146
c24 26 39 62 39 103c0 42 -15 78 -39 103c-24 27 -58 41 -93 41c-36 0 -70 -14 -93 -41c-24 -25 -38 -61 -38 -103c0 -41 14 -77 38 -103c23 -25 57 -39 93 -39c35 0 69 14 93 39zM300 642l-52 -45c-26 -22 -46 -27 -74 -27c-15 0 -27 7 -27 20c0 7 6 16 12 24l66 83
c15 18 30 29 58 29h36c28 0 44 -11 58 -29l66 -83c6 -8 12 -17 12 -24c0 -13 -13 -20 -29 -20c-28 0 -47 5 -74 27z" />
    <glyph glyph-name="atilde" unicode="&#xe3;" horiz-adv-x="574" 
d="M539 446v-197v0v0v-196c0 -29 -24 -53 -53 -53c-26 0 -46 19 -52 43c-38 -27 -83 -43 -133 -43v0c-68 0 -127 28 -170 73c-43 46 -68 108 -68 176c0 69 25 131 68 176c43 46 102 75 170 75c50 0 95 -17 133 -44c6 25 26 44 52 44c29 0 53 -24 53 -54zM394 146
c24 26 39 62 39 103c0 42 -15 78 -39 103c-24 27 -58 41 -93 41c-36 0 -70 -14 -93 -41c-24 -25 -38 -61 -38 -103c0 -41 14 -77 38 -103c23 -25 57 -39 93 -39c35 0 69 14 93 39zM188 590c-7 -11 -17 -20 -33 -20c-20 0 -37 16 -37 33c0 6 2 16 4 23c21 58 49 91 102 91
c55 0 108 -40 144 -40c23 0 34 10 46 32c7 11 18 20 33 20c20 0 37 -16 37 -33c0 -6 -2 -16 -4 -23c-21 -58 -49 -91 -102 -91c-55 0 -108 40 -144 40c-23 0 -34 -10 -46 -32z" />
    <glyph glyph-name="adieresis" unicode="&#xe4;" horiz-adv-x="574" 
d="M539 446v-197v0v0v-196c0 -29 -24 -53 -53 -53c-26 0 -46 19 -52 43c-38 -27 -83 -43 -133 -43v0c-68 0 -127 28 -170 73c-43 46 -68 108 -68 176c0 69 25 131 68 176c43 46 102 75 170 75c50 0 95 -17 133 -44c6 25 26 44 52 44c29 0 53 -24 53 -54zM394 146
c24 26 39 62 39 103c0 42 -15 78 -39 103c-24 27 -58 41 -93 41c-36 0 -70 -14 -93 -41c-24 -25 -38 -61 -38 -103c0 -41 14 -77 38 -103c23 -25 57 -39 93 -39c35 0 69 14 93 39zM137 634c0 36 28 65 64 65s65 -29 65 -65s-29 -64 -65 -64s-64 28 -64 64zM337 634
c0 36 28 65 64 65s65 -29 65 -65s-29 -64 -65 -64s-64 28 -64 64z" />
    <glyph glyph-name="Ccedilla" unicode="&#xc7;" horiz-adv-x="771" 
d="M440 0c-200 0 -366 161 -367 360c1 198 167 359 367 360c88 0 168 -29 231 -78c24 -20 28 -55 10 -80c-20 -25 -57 -29 -80 -11c-44 36 -99 55 -161 55c-69 0 -133 -28 -180 -72c-45 -46 -73 -106 -73 -174s28 -130 73 -174c47 -44 111 -72 180 -72c62 0 116 19 161 55
c23 17 60 13 80 -11c18 -25 14 -61 -10 -80c-63 -49 -143 -78 -231 -78zM470 10l-61 -141c-8 -19 -18 -29 -39 -29c-24 0 -70 23 -70 44c0 8 3 16 8 23l71 103h91z" />
    <glyph glyph-name="ccedilla" unicode="&#xe7;" horiz-adv-x="571" 
d="M312 0c-138 0 -254 112 -254 249c0 139 116 250 254 251c60 0 116 -22 159 -55c23 -18 27 -52 11 -74c-20 -24 -52 -28 -75 -10c-26 19 -58 32 -95 32c-81 0 -148 -67 -148 -144s67 -143 148 -143c36 0 69 13 95 32c22 17 55 13 75 -11c16 -22 12 -54 -11 -74
c-43 -31 -99 -53 -159 -53v0zM370 10l-61 -141c-8 -19 -18 -29 -39 -29c-24 0 -70 23 -70 44c0 8 3 16 8 23l71 103h91z" />
    <glyph glyph-name="egrave" unicode="&#xe8;" horiz-adv-x="609" 
d="M302 0c-137 1 -243 114 -244 250c1 136 107 250 244 250c130 0 233 -97 241 -232v-5v0v0c0 -2 0 -7 -1 -9c-3 -24 -24 -40 -52 -40h-318c5 -23 16 -49 34 -66c21 -24 61 -42 96 -45c36 -3 79 6 104 25c21 22 62 19 75 3c13 -14 23 -44 0 -65c-49 -45 -108 -66 -179 -66z
M302 405c-85 -4 -127 -65 -135 -106h283c-10 40 -61 99 -148 106zM361 570c-28 0 -47 5 -70 27l-68 64c-10 9 -17 19 -17 30c0 19 40 39 72 39c21 0 37 -11 48 -29l57 -88c4 -6 9 -15 9 -22c0 -13 -13 -21 -31 -21z" />
    <glyph glyph-name="eacute" unicode="&#xe9;" horiz-adv-x="609" 
d="M302 0c-137 1 -243 114 -244 250c1 136 107 250 244 250c130 0 233 -97 241 -232v-5v0v0c0 -2 0 -7 -1 -9c-3 -24 -24 -40 -52 -40h-318c5 -23 16 -49 34 -66c21 -24 61 -42 96 -45c36 -3 79 6 104 25c21 22 62 19 75 3c13 -14 23 -44 0 -65c-49 -45 -108 -66 -179 -66z
M302 405c-85 -4 -127 -65 -135 -106h283c-10 40 -61 99 -148 106zM237 570c-17 0 -30 8 -30 21c0 7 4 16 8 22l57 88c11 18 27 29 48 29c32 0 72 -20 72 -39c0 -11 -7 -21 -17 -30l-67 -64c-24 -22 -43 -27 -71 -27z" />
    <glyph glyph-name="ecircumflex" unicode="&#xea;" horiz-adv-x="609" 
d="M302 0c-137 1 -243 114 -244 250c1 136 107 250 244 250c130 0 233 -97 241 -232v-5v0v0c0 -2 0 -7 -1 -9c-3 -24 -24 -40 -52 -40h-318c5 -23 16 -49 34 -66c21 -24 61 -42 96 -45c36 -3 79 6 104 25c21 22 62 19 75 3c13 -14 23 -44 0 -65c-49 -45 -108 -66 -179 -66z
M302 405c-85 -4 -127 -65 -135 -106h283c-10 40 -61 99 -148 106zM300 642l-52 -45c-26 -22 -46 -27 -74 -27c-15 0 -27 7 -27 20c0 7 6 16 12 24l66 83c15 18 30 29 58 29h36c28 0 44 -11 58 -29l66 -83c6 -8 12 -17 12 -24c0 -13 -13 -20 -29 -20c-28 0 -47 5 -74 27z" />
    <glyph glyph-name="edieresis" unicode="&#xeb;" horiz-adv-x="584" 
d="M305 0c-137 1 -243 114 -244 250c1 136 107 250 244 250c130 0 233 -97 241 -232v-5v0v0c0 -2 0 -7 -1 -9c-3 -24 -24 -40 -52 -40h-318c5 -23 16 -49 34 -66c21 -24 61 -42 96 -45c36 -3 79 6 104 25c21 22 62 19 75 3c13 -14 23 -44 0 -65c-49 -45 -108 -66 -179 -66z
M305 405c-85 -4 -127 -65 -135 -106h283c-10 40 -61 99 -148 106zM139 634c0 36 28 65 64 65s65 -29 65 -65s-29 -64 -65 -64s-64 28 -64 64zM339 634c0 36 28 65 64 65s65 -29 65 -65s-29 -64 -65 -64s-64 28 -64 64z" />
    <glyph glyph-name="igrave" unicode="&#xec;" horiz-adv-x="281" 
d="M118 499c31 0 54 -23 54 -55v-390c0 -30 -23 -54 -54 -54c-30 0 -54 24 -54 54v390c0 32 24 55 54 55zM179 570c-28 0 -47 5 -70 27l-68 64c-10 9 -17 19 -17 30c0 19 40 39 72 39c21 0 37 -11 48 -29l57 -88c4 -6 9 -15 9 -22c0 -13 -13 -21 -31 -21z" />
    <glyph glyph-name="iacute" unicode="&#xed;" horiz-adv-x="281" 
d="M104 499c31 0 54 -23 54 -55v-390c0 -30 -23 -54 -54 -54c-30 0 -54 24 -54 54v390c0 32 24 55 54 55zM44 570c-17 0 -30 8 -30 21c0 7 4 16 8 22l57 88c11 18 27 29 48 29c32 0 72 -20 72 -39c0 -11 -7 -21 -17 -30l-67 -64c-24 -22 -43 -27 -71 -27z" />
    <glyph glyph-name="icircumflex" unicode="&#xee;" horiz-adv-x="281" 
d="M163 499c31 0 54 -23 54 -55v-390c0 -30 -23 -54 -54 -54c-30 0 -54 24 -54 54v390c0 32 24 55 54 55zM162 642l-52 -45c-26 -22 -46 -27 -74 -27c-15 0 -27 7 -27 20c0 7 6 16 12 24l66 83c15 18 30 29 58 29h36c28 0 44 -11 58 -29l66 -83c6 -8 12 -17 12 -24
c0 -13 -13 -20 -29 -20c-28 0 -47 5 -74 27z" />
    <glyph glyph-name="idieresis" unicode="&#xef;" horiz-adv-x="281" 
d="M159 499c31 0 54 -23 54 -55v-390c0 -30 -23 -54 -54 -54c-30 0 -54 24 -54 54v390c0 32 24 55 54 55zM-6 634c0 36 28 65 64 65s65 -29 65 -65s-29 -64 -65 -64s-64 28 -64 64zM194 634c0 36 28 65 64 65s65 -29 65 -65s-29 -64 -65 -64s-64 28 -64 64z" />
    <glyph glyph-name="ntilde" unicode="&#xf1;" horiz-adv-x="613" 
d="M302 500c116 0 209 -95 209 -208v-239c0 -29 -23 -53 -52 -53c-28 0 -53 24 -53 53v239c0 56 -47 101 -104 101c-56 0 -100 -45 -100 -101v-239v0c0 -3 0 -6 -2 -10c-5 -24 -27 -43 -53 -43c-30 0 -53 24 -53 53v239v0v155c0 29 23 53 53 53c21 0 40 -12 49 -31
c30 19 67 31 106 31zM189 590c-7 -11 -17 -20 -33 -20c-20 0 -37 16 -37 33c0 6 2 16 4 23c21 58 49 91 102 91c55 0 108 -40 144 -40c23 0 34 10 46 32c7 11 18 20 33 20c20 0 37 -16 37 -33c0 -6 -2 -16 -4 -23c-21 -58 -49 -91 -102 -91c-55 0 -108 40 -144 40
c-23 0 -34 -10 -46 -32z" />
    <glyph glyph-name="ograve" unicode="&#xf2;" horiz-adv-x="640" 
d="M299 -3c-69 0 -127 29 -172 76c-43 44 -69 106 -69 176c0 68 26 127 69 175c45 47 103 76 172 76c66 0 126 -29 167 -76c45 -48 70 -107 70 -175v0c0 -70 -25 -132 -70 -176c-41 -47 -101 -76 -167 -76v0zM203 353c-23 -27 -36 -63 -36 -104c0 -43 13 -78 36 -106
c25 -24 58 -37 96 -37c35 0 67 13 92 37c25 28 39 63 39 106v0c0 41 -14 77 -39 104c-25 22 -57 38 -92 38c-38 0 -71 -16 -96 -38zM359 570c-28 0 -47 5 -70 27l-68 64c-10 9 -17 19 -17 30c0 19 40 39 72 39c21 0 37 -11 48 -29l57 -88c4 -6 9 -15 9 -22
c0 -13 -13 -21 -31 -21z" />
    <glyph glyph-name="oacute" unicode="&#xf3;" horiz-adv-x="640" 
d="M299 -3c-69 0 -127 29 -172 76c-43 44 -69 106 -69 176c0 68 26 127 69 175c45 47 103 76 172 76c66 0 126 -29 167 -76c45 -48 70 -107 70 -175v0c0 -70 -25 -132 -70 -176c-41 -47 -101 -76 -167 -76v0zM203 353c-23 -27 -36 -63 -36 -104c0 -43 13 -78 36 -106
c25 -24 58 -37 96 -37c35 0 67 13 92 37c25 28 39 63 39 106v0c0 41 -14 77 -39 104c-25 22 -57 38 -92 38c-38 0 -71 -16 -96 -38zM232 570c-17 0 -30 8 -30 21c0 7 4 16 8 22l57 88c11 18 27 29 48 29c32 0 72 -20 72 -39c0 -11 -7 -21 -17 -30l-67 -64
c-24 -22 -43 -27 -71 -27z" />
    <glyph glyph-name="ocircumflex" unicode="&#xf4;" horiz-adv-x="640" 
d="M299 -3c-69 0 -127 29 -172 76c-43 44 -69 106 -69 176c0 68 26 127 69 175c45 47 103 76 172 76c66 0 126 -29 167 -76c45 -48 70 -107 70 -175v0c0 -70 -25 -132 -70 -176c-41 -47 -101 -76 -167 -76v0zM203 353c-23 -27 -36 -63 -36 -104c0 -43 13 -78 36 -106
c25 -24 58 -37 96 -37c35 0 67 13 92 37c25 28 39 63 39 106v0c0 41 -14 77 -39 104c-25 22 -57 38 -92 38c-38 0 -71 -16 -96 -38zM296 642l-52 -45c-26 -22 -46 -27 -74 -27c-15 0 -27 7 -27 20c0 7 6 16 12 24l66 83c15 18 30 29 58 29h36c28 0 44 -11 58 -29l66 -83
c6 -8 12 -17 12 -24c0 -13 -13 -20 -29 -20c-28 0 -47 5 -74 27z" />
    <glyph glyph-name="otilde" unicode="&#xf5;" horiz-adv-x="640" 
d="M299 -3c-69 0 -127 29 -172 76c-43 44 -69 106 -69 176c0 68 26 127 69 175c45 47 103 76 172 76c66 0 126 -29 167 -76c45 -48 70 -107 70 -175v0c0 -70 -25 -132 -70 -176c-41 -47 -101 -76 -167 -76v0zM203 353c-23 -27 -36 -63 -36 -104c0 -43 13 -78 36 -106
c25 -24 58 -37 96 -37c35 0 67 13 92 37c25 28 39 63 39 106v0c0 41 -14 77 -39 104c-25 22 -57 38 -92 38c-38 0 -71 -16 -96 -38zM184 590c-7 -11 -17 -20 -33 -20c-20 0 -37 16 -37 33c0 6 2 16 4 23c21 58 49 91 102 91c55 0 108 -40 144 -40c23 0 34 10 46 32
c7 11 18 20 33 20c20 0 37 -16 37 -33c0 -6 -2 -16 -4 -23c-21 -58 -49 -91 -102 -91c-55 0 -108 40 -144 40c-23 0 -34 -10 -46 -32z" />
    <glyph glyph-name="odieresis" unicode="&#xf6;" horiz-adv-x="640" 
d="M299 -3c-69 0 -127 29 -172 76c-43 44 -69 106 -69 176c0 68 26 127 69 175c45 47 103 76 172 76c66 0 126 -29 167 -76c45 -48 70 -107 70 -175v0c0 -70 -25 -132 -70 -176c-41 -47 -101 -76 -167 -76v0zM203 353c-23 -27 -36 -63 -36 -104c0 -43 13 -78 36 -106
c25 -24 58 -37 96 -37c35 0 67 13 92 37c25 28 39 63 39 106v0c0 41 -14 77 -39 104c-25 22 -57 38 -92 38c-38 0 -71 -16 -96 -38zM133 634c0 36 28 65 64 65s65 -29 65 -65s-29 -64 -65 -64s-64 28 -64 64zM333 634c0 36 28 65 64 65s65 -29 65 -65s-29 -64 -65 -64
s-64 28 -64 64z" />
    <glyph glyph-name="ugrave" unicode="&#xf9;" horiz-adv-x="613" 
d="M502 208c0 -114 -96 -208 -211 -208c-114 0 -208 94 -208 208v239c0 28 24 53 53 53c30 0 53 -25 53 -53v-239c0 -57 45 -102 102 -102c58 0 104 45 105 102v239v0c0 28 22 53 52 53c28 0 54 -25 54 -53v-239zM355 570c-28 0 -47 5 -70 27l-68 64c-10 9 -17 19 -17 30
c0 19 40 39 72 39c21 0 37 -11 48 -29l57 -88c4 -6 9 -15 9 -22c0 -13 -13 -21 -31 -21z" />
    <glyph glyph-name="uacute" unicode="&#xfa;" horiz-adv-x="613" 
d="M502 208c0 -114 -96 -208 -211 -208c-114 0 -208 94 -208 208v239c0 28 24 53 53 53c30 0 53 -25 53 -53v-239c0 -57 45 -102 102 -102c58 0 104 45 105 102v239v0c0 28 22 53 52 53c28 0 54 -25 54 -53v-239zM228 570c-17 0 -30 8 -30 21c0 7 4 16 8 22l57 88
c11 18 27 29 48 29c32 0 72 -20 72 -39c0 -11 -7 -21 -17 -30l-67 -64c-24 -22 -43 -27 -71 -27z" />
    <glyph glyph-name="ucircumflex" unicode="&#xfb;" horiz-adv-x="613" 
d="M502 208c0 -114 -96 -208 -211 -208c-114 0 -208 94 -208 208v239c0 28 24 53 53 53c30 0 53 -25 53 -53v-239c0 -57 45 -102 102 -102c58 0 104 45 105 102v239v0c0 28 22 53 52 53c28 0 54 -25 54 -53v-239zM292 642l-52 -45c-26 -22 -46 -27 -74 -27
c-15 0 -27 7 -27 20c0 7 6 16 12 24l66 83c15 18 30 29 58 29h36c28 0 44 -11 58 -29l66 -83c6 -8 12 -17 12 -24c0 -13 -13 -20 -29 -20c-28 0 -47 5 -74 27z" />
    <glyph glyph-name="udieresis" unicode="&#xfc;" horiz-adv-x="613" 
d="M502 208c0 -114 -96 -208 -211 -208c-114 0 -208 94 -208 208v239c0 28 24 53 53 53c30 0 53 -25 53 -53v-239c0 -57 45 -102 102 -102c58 0 104 45 105 102v239v0c0 28 22 53 52 53c28 0 54 -25 54 -53v-239zM128 633c0 36 28 65 64 65s65 -29 65 -65s-29 -64 -65 -64
s-64 28 -64 64zM328 633c0 36 28 65 64 65s65 -29 65 -65s-29 -64 -65 -64s-64 28 -64 64z" />
    <glyph glyph-name="yacute" unicode="&#xfd;" horiz-adv-x="588" 
d="M416 500c29 0 54 -23 54 -53v-236v0v-142c0 -134 -106 -239 -239 -239c-36 0 -73 10 -103 25c-28 12 -38 43 -26 71c13 24 47 35 71 22c19 -9 38 -14 58 -14c59 1 109 39 125 91c-28 -16 -62 -24 -95 -24c-115 0 -209 95 -209 210v236c0 30 25 53 52 53
c31 0 53 -23 53 -53v-236c0 -58 47 -102 104 -102s103 44 103 102v236c0 30 22 53 52 53zM218 570c-17 0 -30 8 -30 21c0 7 4 16 8 22l57 88c11 18 27 29 48 29c32 0 72 -20 72 -39c0 -11 -7 -21 -17 -30l-67 -64c-24 -22 -43 -27 -71 -27z" />
    <glyph glyph-name="ydieresis" unicode="&#xff;" horiz-adv-x="588" 
d="M416 500c29 0 54 -23 54 -53v-236v0v-142c0 -134 -106 -239 -239 -239c-36 0 -73 10 -103 25c-28 12 -38 43 -26 71c13 24 47 35 71 22c19 -9 38 -14 58 -14c59 1 109 39 125 91c-28 -16 -62 -24 -95 -24c-115 0 -209 95 -209 210v236c0 30 25 53 52 53
c31 0 53 -23 53 -53v-236c0 -58 47 -102 104 -102s103 44 103 102v236c0 30 22 53 52 53zM96 634c0 36 28 65 64 65s65 -29 65 -65s-29 -64 -65 -64s-64 28 -64 64zM296 634c0 36 28 65 64 65s65 -29 65 -65s-29 -64 -65 -64s-64 28 -64 64z" />
    <glyph glyph-name="Aring" unicode="&#xc5;" horiz-adv-x="646" 
d="M246 275h162l-81 215zM498 35l-49 130h-243l-49 -130c-9 -22 -30 -35 -52 -35c-7 0 -13 1 -19 3c-29 11 -43 43 -33 72l207 553c-36 22 -62 61 -62 104v2c0 67 61 123 128 123s128 -56 128 -123v-2c0 -43 -25 -81 -61 -103l208 -554c10 -29 -4 -61 -33 -72
c-5 -2 -12 -3 -19 -3c-22 0 -43 13 -51 35zM326 685c27 0 48 21 48 47v2c0 26 -21 47 -48 47s-48 -21 -48 -47v-2c0 -26 21 -47 48 -47z" />
    <glyph glyph-name="OE" unicode="&#x152;" horiz-adv-x="1443" 
d="M715 0c-31 0 -55 25 -55 55v56c-2 -1 -3 -3 -4 -4c-59 -65 -147 -107 -239 -107c-96 0 -184 42 -245 107c-62 65 -99 154 -99 253s37 187 99 253c61 66 149 107 245 107c92 0 180 -41 239 -107c1 -2 2 -3 4 -5v37c0 31 24 55 55 55h327c29 0 55 -24 55 -55
s-26 -56 -55 -56h-271v-183h233c30 0 55 -26 55 -55c0 -31 -25 -56 -55 -56h-233v-184h271c29 0 55 -25 55 -56c0 -30 -26 -55 -55 -55h-324c-2 0 -2 1 -2 1zM575 186c41 43 68 106 68 174s-27 131 -68 175c-42 45 -98 71 -158 71c-64 0 -120 -26 -162 -71
c-42 -44 -68 -107 -68 -175s26 -131 68 -174c42 -45 98 -72 162 -72c60 0 116 27 158 72z" />
    </font>
</defs>
</svg>
